<svg width="439" height="57" viewBox="0 0 439 57" fill="none" xmlns="http://www.w3.org/2000/svg">
<g clip-path="url(#clip0_193_17066)">
<rect width="439" height="57" rx="10" fill="#FFF5D5"/>
<path opacity="0.4" d="M424.966 71.8261L415.941 25.0092C415.235 21.3478 419.423 19.5376 422.364 22.2332L444.209 42.2612C445.971 43.876 448.502 43.9811 449.864 42.4961L459.202 32.3106C461.323 29.9968 465.69 31.73 466.349 35.1473L475.374 81.9642C476.08 85.6256 471.892 87.4359 468.951 84.7402L447.105 64.7122C445.344 63.0975 442.813 62.9923 441.451 64.4773L432.113 74.6629C429.992 76.9767 425.625 75.2434 424.966 71.8261Z" fill="#FAAA44"/>
<path d="M424.966 71.8261L415.941 25.0092C415.235 21.3478 419.423 19.5376 422.364 22.2332L444.209 42.2612C445.971 43.876 448.502 43.9811 449.864 42.4961L459.202 32.3106C461.323 29.9968 465.69 31.73 466.349 35.1473L475.374 81.9642C476.08 85.6256 471.892 87.4359 468.951 84.7402L447.105 64.7122C445.344 63.0975 442.813 62.9923 441.451 64.4773L432.113 74.6629C429.992 76.9767 425.625 75.2434 424.966 71.8261Z" stroke="#FAAA44" stroke-width="1.5" stroke-linecap="round" stroke-linejoin="round"/>
<path opacity="0.4" d="M-33.1301 144.022L-29.4738 -39.8271C-29.1878 -54.2056 -11.9333 -57.6608 -3.0136 -45.1257L63.2562 48.0054C68.5993 55.5143 78.0631 57.9494 84.3941 53.4444L127.816 22.5463C137.68 15.5273 152.754 25.5809 152.488 39.0006L148.831 222.85C148.545 237.228 131.291 240.683 122.371 228.148L56.1013 135.017C50.7582 127.508 41.2945 125.073 34.9635 129.578L-8.45863 160.476C-18.3227 167.495 -33.397 157.442 -33.1301 144.022Z" fill="#FAAA44"/>
<path d="M-33.1301 144.022L-29.4738 -39.8271C-29.1878 -54.2056 -11.9332 -57.6608 -3.01359 -45.1258L63.2562 48.0054C68.5993 55.5142 78.0631 57.9494 84.394 53.4444L127.816 22.5463C137.68 15.5273 152.754 25.5809 152.488 39.0006L148.831 222.85C148.545 237.228 131.291 240.683 122.371 228.148L56.1013 135.017C50.7582 127.508 41.2945 125.073 34.9635 129.578L-8.45863 160.476C-18.3227 167.495 -33.397 157.442 -33.1301 144.022Z" stroke="#FAAA44" stroke-width="1.5" stroke-linecap="round" stroke-linejoin="round"/>
<path d="M126.992 40.476C124 40.476 121.62 39.66 119.852 38.028C118.084 36.3733 117.2 34.016 117.2 30.956V25.244C117.2 22.184 118.084 19.838 119.852 18.206C121.62 16.5513 124 15.724 126.992 15.724C129.984 15.724 132.364 16.5513 134.132 18.206C135.9 19.838 136.784 22.184 136.784 25.244V30.956C136.784 34.016 135.9 36.3733 134.132 38.028C132.364 39.66 129.984 40.476 126.992 40.476ZM126.992 36.464C128.669 36.464 129.973 35.9767 130.902 35.002C131.831 34.0273 132.296 32.724 132.296 31.092V25.108C132.296 23.476 131.831 22.1727 130.902 21.198C129.973 20.2233 128.669 19.736 126.992 19.736C125.337 19.736 124.034 20.2233 123.082 21.198C122.153 22.1727 121.688 23.476 121.688 25.108V31.092C121.688 32.724 122.153 34.0273 123.082 35.002C124.034 35.9767 125.337 36.464 126.992 36.464ZM128.556 46.12C127.445 46.12 126.539 45.7687 125.836 45.066C125.156 44.386 124.816 43.468 124.816 42.312V40H129.168V41.632C129.168 42.312 129.485 42.652 130.12 42.652H132.126V46.12H128.556ZM147.283 40.272C145.968 40.272 144.812 39.9773 143.815 39.388C142.84 38.776 142.081 37.9373 141.537 36.872C140.993 35.8067 140.721 34.5827 140.721 33.2V23.136H145.005V32.86C145.005 34.1293 145.311 35.0813 145.923 35.716C146.557 36.3507 147.453 36.668 148.609 36.668C149.923 36.668 150.943 36.2373 151.669 35.376C152.394 34.492 152.757 33.268 152.757 31.704V23.136H157.041V40H152.825V37.79H152.213C151.941 38.3567 151.431 38.912 150.683 39.456C149.935 40 148.801 40.272 147.283 40.272ZM161.808 40V23.136H166.092V40H161.808ZM163.95 21.164C163.179 21.164 162.522 20.9147 161.978 20.416C161.456 19.9173 161.196 19.26 161.196 18.444C161.196 17.628 161.456 16.9707 161.978 16.472C162.522 15.9733 163.179 15.724 163.95 15.724C164.743 15.724 165.4 15.9733 165.922 16.472C166.443 16.9707 166.704 17.628 166.704 18.444C166.704 19.26 166.443 19.9173 165.922 20.416C165.4 20.9147 164.743 21.164 163.95 21.164ZM178.761 40.476C177.129 40.476 175.644 40.136 174.307 39.456C172.992 38.776 171.95 37.79 171.179 36.498C170.408 35.206 170.023 33.642 170.023 31.806V31.33C170.023 29.494 170.408 27.93 171.179 26.638C171.95 25.346 172.992 24.36 174.307 23.68C175.644 23 177.129 22.66 178.761 22.66C180.37 22.66 181.753 22.9433 182.909 23.51C184.065 24.0767 184.994 24.8587 185.697 25.856C186.422 26.8307 186.898 27.9413 187.125 29.188L182.977 30.072C182.886 29.392 182.682 28.78 182.365 28.236C182.048 27.692 181.594 27.2613 181.005 26.944C180.438 26.6267 179.724 26.468 178.863 26.468C178.002 26.468 177.22 26.6607 176.517 27.046C175.837 27.4087 175.293 27.964 174.885 28.712C174.5 29.4373 174.307 30.3327 174.307 31.398V31.738C174.307 32.8033 174.5 33.71 174.885 34.458C175.293 35.1833 175.837 35.7387 176.517 36.124C177.22 36.4867 178.002 36.668 178.863 36.668C180.155 36.668 181.13 36.3393 181.787 35.682C182.467 35.002 182.898 34.118 183.079 33.03L187.227 34.016C186.932 35.2173 186.422 36.3167 185.697 37.314C184.994 38.2887 184.065 39.0593 182.909 39.626C181.753 40.1927 180.37 40.476 178.761 40.476ZM190.761 40V16.2H195.045V29.358H195.657L201.233 23.136H206.809L199.023 31.296L207.081 40H201.573L195.657 33.302H195.045V40H190.761ZM216.419 40L222.675 16.2H230.495L236.751 40H232.127L230.835 34.764H222.335L221.043 40H216.419ZM223.389 30.616H229.781L226.891 19.022H226.279L223.389 30.616ZM247.657 40.476C246.025 40.476 244.541 40.136 243.203 39.456C241.889 38.776 240.846 37.79 240.075 36.498C239.305 35.206 238.919 33.642 238.919 31.806V31.33C238.919 29.494 239.305 27.93 240.075 26.638C240.846 25.346 241.889 24.36 243.203 23.68C244.541 23 246.025 22.66 247.657 22.66C249.267 22.66 250.649 22.9433 251.805 23.51C252.961 24.0767 253.891 24.8587 254.593 25.856C255.319 26.8307 255.795 27.9413 256.021 29.188L251.873 30.072C251.783 29.392 251.579 28.78 251.261 28.236C250.944 27.692 250.491 27.2613 249.901 26.944C249.335 26.6267 248.621 26.468 247.759 26.468C246.898 26.468 246.116 26.6607 245.413 27.046C244.733 27.4087 244.189 27.964 243.781 28.712C243.396 29.4373 243.203 30.3327 243.203 31.398V31.738C243.203 32.8033 243.396 33.71 243.781 34.458C244.189 35.1833 244.733 35.7387 245.413 36.124C246.116 36.4867 246.898 36.668 247.759 36.668C249.051 36.668 250.026 36.3393 250.683 35.682C251.363 35.002 251.794 34.118 251.975 33.03L256.123 34.016C255.829 35.2173 255.319 36.3167 254.593 37.314C253.891 38.2887 252.961 39.0593 251.805 39.626C250.649 40.1927 249.267 40.476 247.657 40.476ZM265.553 40C264.442 40 263.536 39.66 262.833 38.98C262.153 38.2773 261.813 37.348 261.813 36.192V26.672H257.597V23.136H261.813V17.9H266.097V23.136H270.721V26.672H266.097V35.444C266.097 36.124 266.414 36.464 267.049 36.464H270.313V40H265.553ZM274.599 40V23.136H278.883V40H274.599ZM276.741 21.164C275.97 21.164 275.313 20.9147 274.769 20.416C274.247 19.9173 273.987 19.26 273.987 18.444C273.987 17.628 274.247 16.9707 274.769 16.472C275.313 15.9733 275.97 15.724 276.741 15.724C277.534 15.724 278.191 15.9733 278.713 16.472C279.234 16.9707 279.495 17.628 279.495 18.444C279.495 19.26 279.234 19.9173 278.713 20.416C278.191 20.9147 277.534 21.164 276.741 21.164ZM291.654 40.476C289.977 40.476 288.469 40.136 287.132 39.456C285.795 38.776 284.741 37.79 283.97 36.498C283.199 35.206 282.814 33.6533 282.814 31.84V31.296C282.814 29.4827 283.199 27.93 283.97 26.638C284.741 25.346 285.795 24.36 287.132 23.68C288.469 23 289.977 22.66 291.654 22.66C293.331 22.66 294.839 23 296.176 23.68C297.513 24.36 298.567 25.346 299.338 26.638C300.109 27.93 300.494 29.4827 300.494 31.296V31.84C300.494 33.6533 300.109 35.206 299.338 36.498C298.567 37.79 297.513 38.776 296.176 39.456C294.839 40.136 293.331 40.476 291.654 40.476ZM291.654 36.668C292.969 36.668 294.057 36.2487 294.918 35.41C295.779 34.5487 296.21 33.3247 296.21 31.738V31.398C296.21 29.8113 295.779 28.5987 294.918 27.76C294.079 26.8987 292.991 26.468 291.654 26.468C290.339 26.468 289.251 26.8987 288.39 27.76C287.529 28.5987 287.098 29.8113 287.098 31.398V31.738C287.098 33.3247 287.529 34.5487 288.39 35.41C289.251 36.2487 290.339 36.668 291.654 36.668ZM304.448 40V23.136H308.664V25.346H309.276C309.548 24.7567 310.058 24.2013 310.806 23.68C311.554 23.136 312.688 22.864 314.206 22.864C315.521 22.864 316.666 23.17 317.64 23.782C318.638 24.3713 319.408 25.1987 319.952 26.264C320.496 27.3067 320.768 28.5307 320.768 29.936V40H316.484V30.276C316.484 29.0067 316.167 28.0547 315.532 27.42C314.92 26.7853 314.036 26.468 312.88 26.468C311.566 26.468 310.546 26.91 309.82 27.794C309.095 28.6553 308.732 29.868 308.732 31.432V40H304.448Z" fill="#704B1D"/>
</g>
<defs>
<clipPath id="clip0_193_17066">
<rect width="439" height="57" rx="10" fill="white"/>
</clipPath>
</defs>
</svg>
