<svg width="439" height="57" viewBox="0 0 439 57" fill="none" xmlns="http://www.w3.org/2000/svg">
<g clip-path="url(#clip0_312_28053)">
<rect width="439" height="57" fill="#FFF5D5"/>
<path opacity="0.4" d="M424.966 71.8261L415.941 25.0092C415.235 21.3478 419.423 19.5376 422.364 22.2332L444.209 42.2612C445.971 43.876 448.502 43.9811 449.864 42.4961L459.202 32.3106C461.323 29.9968 465.69 31.73 466.349 35.1473L475.374 81.9642C476.08 85.6256 471.892 87.4359 468.951 84.7402L447.105 64.7122C445.344 63.0975 442.813 62.9923 441.451 64.4773L432.113 74.6629C429.992 76.9767 425.625 75.2434 424.966 71.8261Z" fill="#FAAA44"/>
<path d="M424.966 71.8261L415.941 25.0092C415.235 21.3478 419.423 19.5376 422.364 22.2332L444.209 42.2612C445.971 43.876 448.502 43.9811 449.864 42.4961L459.202 32.3106C461.323 29.9968 465.69 31.73 466.349 35.1473L475.374 81.9642C476.08 85.6256 471.892 87.4359 468.951 84.7402L447.105 64.7122C445.344 63.0975 442.813 62.9923 441.451 64.4773L432.113 74.6629C429.992 76.9767 425.625 75.2434 424.966 71.8261Z" stroke="#FAAA44" stroke-width="1.5" stroke-linecap="round" stroke-linejoin="round"/>
<path opacity="0.4" d="M-33.1301 144.022L-29.4738 -39.8271C-29.1878 -54.2057 -11.9333 -57.6609 -3.0136 -45.1258L63.2562 48.0054C68.5993 55.5142 78.0631 57.9493 84.3941 53.4443L127.816 22.5462C137.68 15.5272 152.754 25.5808 152.488 39.0005L148.831 222.85C148.545 237.228 131.291 240.683 122.371 228.148L56.1013 135.017C50.7582 127.508 41.2945 125.073 34.9635 129.578L-8.45863 160.476C-18.3227 167.495 -33.397 157.442 -33.1301 144.022Z" fill="#FAAA44"/>
<path d="M-33.1301 144.022L-29.4738 -39.8271C-29.1878 -54.2057 -11.9332 -57.6609 -3.01359 -45.1258L63.2562 48.0054C68.5993 55.5142 78.0631 57.9493 84.394 53.4443L127.816 22.5462C137.68 15.5272 152.754 25.5808 152.488 39.0005L148.831 222.85C148.545 237.228 131.291 240.683 122.371 228.148L56.1013 135.017C50.7582 127.508 41.2945 125.073 34.9635 129.578L-8.45863 160.476C-18.3227 167.495 -33.397 157.442 -33.1301 144.022Z" stroke="#FAAA44" stroke-width="1.5" stroke-linecap="round" stroke-linejoin="round"/>
</g>
<defs>
<clipPath id="clip0_312_28053">
<rect width="439" height="57" fill="white"/>
</clipPath>
</defs>
</svg>
