<svg width="34" height="35" viewBox="0 0 34 35" fill="none" xmlns="http://www.w3.org/2000/svg">
<rect x="0.5" y="1.04541" width="33" height="33" rx="1.5" stroke="#EBEBEB"/>
<path d="M27 12.8288C27 15.4703 24.7611 17.6121 22 17.6121C21.6753 17.6125 21.3516 17.5825 21.0327 17.5226C20.8031 17.4795 20.6883 17.458 20.6082 17.4702C20.5281 17.4824 20.4145 17.5428 20.1874 17.6636C19.545 18.0052 18.7959 18.1259 18.0755 17.9919C18.3493 17.6551 18.5363 17.251 18.6188 16.8178C18.6688 16.5528 18.545 16.2954 18.3594 16.107C17.5166 15.2512 17 14.098 17 12.8288C17 10.1872 19.2388 8.04541 22 8.04541C24.7611 8.04541 27 10.1872 27 12.8288Z" stroke="#1B4D5B" stroke-width="1.5" stroke-linejoin="round"/>
<path d="M20.4922 13.0454H20.5003M23.4922 13.0454H23.5003" stroke="#1B4D5B" stroke-width="1.5" stroke-linecap="round"/>
<path d="M12.5019 27.0454H9.71817C9.39488 27.0454 9.07021 26.9999 8.77327 26.8723C7.80666 26.457 7.31624 25.9087 7.08769 25.5656C6.95764 25.3704 6.97617 25.1217 7.11726 24.9343C8.23716 23.4469 10.8385 22.5484 12.5066 22.5483C14.1748 22.5484 16.7714 23.4469 17.8913 24.9343C18.0324 25.1217 18.0509 25.3704 17.9209 25.5656C17.6923 25.9087 17.2019 26.457 16.2353 26.8723C15.9383 26.9999 15.6137 27.0454 15.2904 27.0454H12.5019Z" stroke="#1B4D5B" stroke-width="1.5" stroke-linecap="round" stroke-linejoin="round"/>
<path d="M15.2855 17.3342C15.2855 18.8655 14.0414 20.1069 12.5068 20.1069C10.9721 20.1069 9.72803 18.8655 9.72803 17.3342C9.72803 15.8029 10.9721 14.5615 12.5068 14.5615C14.0414 14.5615 15.2855 15.8029 15.2855 17.3342Z" stroke="#1B4D5B" stroke-width="1.5" stroke-linecap="round" stroke-linejoin="round"/>
</svg>
