<svg width="34" height="34" viewBox="0 0 34 34" fill="none" xmlns="http://www.w3.org/2000/svg">
<path d="M0.5 4C0.5 2.067 2.067 0.5 4 0.5H30C31.933 0.5 33.5 2.067 33.5 4V30C33.5 31.933 31.933 33.5 30 33.5H4C2.067 33.5 0.5 31.933 0.5 30V4Z" stroke="#D3D3D3"/>
<path d="M11.7429 17.0909C11.7429 17.7254 11.6226 18.2652 11.3821 18.7102C11.1435 19.1553 10.8177 19.4953 10.4048 19.7301C9.99384 19.9631 9.53172 20.0795 9.01847 20.0795C8.50142 20.0795 8.03741 19.9621 7.62642 19.7273C7.21544 19.4924 6.89063 19.1525 6.65199 18.7074C6.41335 18.2623 6.29403 17.7235 6.29403 17.0909C6.29403 16.4564 6.41335 15.9167 6.65199 15.4716C6.89063 15.0265 7.21544 14.6875 7.62642 14.4545C8.03741 14.2197 8.50142 14.1023 9.01847 14.1023C9.53172 14.1023 9.99384 14.2197 10.4048 14.4545C10.8177 14.6875 11.1435 15.0265 11.3821 15.4716C11.6226 15.9167 11.7429 16.4564 11.7429 17.0909ZM10.4957 17.0909C10.4957 16.6799 10.4342 16.3333 10.3111 16.0511C10.1899 15.7689 10.0185 15.5549 9.79688 15.4091C9.57528 15.2633 9.31581 15.1903 9.01847 15.1903C8.72112 15.1903 8.46165 15.2633 8.24006 15.4091C8.01847 15.5549 7.84612 15.7689 7.72301 16.0511C7.6018 16.3333 7.54119 16.6799 7.54119 17.0909C7.54119 17.5019 7.6018 17.8485 7.72301 18.1307C7.84612 18.4129 8.01847 18.6269 8.24006 18.7727C8.46165 18.9186 8.72112 18.9915 9.01847 18.9915C9.31581 18.9915 9.57528 18.9186 9.79688 18.7727C10.0185 18.6269 10.1899 18.4129 10.3111 18.1307C10.4342 17.8485 10.4957 17.5019 10.4957 17.0909ZM12.6541 20V14.1818H14.9496C15.3909 14.1818 15.7668 14.2661 16.0774 14.4347C16.388 14.6013 16.6248 14.8333 16.7876 15.1307C16.9524 15.4261 17.0348 15.767 17.0348 16.1534C17.0348 16.5398 16.9515 16.8807 16.7848 17.1761C16.6181 17.4716 16.3767 17.7017 16.0604 17.8665C15.746 18.0312 15.3653 18.1136 14.9183 18.1136H13.4553V17.1278H14.7195C14.9562 17.1278 15.1513 17.0871 15.3047 17.0057C15.46 16.9223 15.5755 16.8078 15.6513 16.6619C15.7289 16.5142 15.7678 16.3447 15.7678 16.1534C15.7678 15.9602 15.7289 15.7917 15.6513 15.6477C15.5755 15.5019 15.46 15.3892 15.3047 15.3097C15.1494 15.2282 14.9524 15.1875 14.7138 15.1875H13.8842V20H12.6541ZM17.8338 20V14.1818H21.7543V15.196H19.0639V16.5824H21.5526V17.5966H19.0639V18.9858H21.7656V20H17.8338ZM27.5987 14.1818V20H26.5362L24.005 16.3381H23.9624V20H22.7322V14.1818H23.8118L26.3232 17.8409H26.3743V14.1818H27.5987Z" fill="#1B4D5B"/>
</svg>
