<svg width="34" height="34" viewBox="0 0 34 34" fill="none" xmlns="http://www.w3.org/2000/svg">
<rect x="0.5" y="0.5" width="33" height="33" rx="1.5" stroke="#EBEBEB"/>
<path d="M18 12C18 14.2091 16.2091 16 14 16C11.7909 16 10 14.2091 10 12C10 9.79086 11.7909 8 14 8C16.2091 8 18 9.79086 18 12Z" stroke="#1B4D5B" stroke-width="1.5"/>
<path d="M20 16C22.2091 16 24 14.2091 24 12C24 9.79086 22.2091 8 20 8" stroke="#1B4D5B" stroke-width="1.5" stroke-linecap="round" stroke-linejoin="round"/>
<path d="M16 19H12C9.23858 19 7 21.2386 7 24C7 25.1046 7.89543 26 9 26H19C20.1046 26 21 25.1046 21 24C21 21.2386 18.7614 19 16 19Z" stroke="#1B4D5B" stroke-width="1.5" stroke-linejoin="round"/>
<path d="M22 19C24.7614 19 27 21.2386 27 24C27 25.1046 26.1046 26 25 26H23.5" stroke="#1B4D5B" stroke-width="1.5" stroke-linecap="round" stroke-linejoin="round"/>
</svg>
