<svg width="35" height="36" viewBox="0 0 35 36" fill="none" xmlns="http://www.w3.org/2000/svg">
<path d="M0.5 4.5C0.5 2.567 2.067 1 4 1H31C32.933 1 34.5 2.567 34.5 4.5V31.5C34.5 33.433 32.933 35 31 35H4C2.067 35 0.5 33.433 0.5 31.5V4.5Z" stroke="#D3D3D3"/>
<path d="M27.044 17.045C27.348 17.4713 27.5 17.6845 27.5 18C27.5 18.3155 27.348 18.5287 27.044 18.955C25.6779 20.8706 22.1892 25 17.5 25C12.8108 25 9.3221 20.8706 7.95604 18.955C7.65201 18.5287 7.5 18.3155 7.5 18C7.5 17.6845 7.65201 17.4713 7.95604 17.045C9.3221 15.1294 12.8108 11 17.5 11C22.1892 11 25.6779 15.1294 27.044 17.045Z" stroke="#1B4D5B" stroke-width="1.5"/>
<path d="M20.5 18C20.5 16.3431 19.1569 15 17.5 15C15.8431 15 14.5 16.3431 14.5 18C14.5 19.6569 15.8431 21 17.5 21C19.1569 21 20.5 19.6569 20.5 18Z" stroke="#1B4D5B" stroke-width="1.5"/>
</svg>
