<svg width="274" height="97" viewBox="0 0 274 97" fill="none" xmlns="http://www.w3.org/2000/svg">
<path d="M92.4581 19.2369C93.8913 17.4584 92.6862 14.7883 90.415 14.7182L89.8844 14.7031C90.3951 16.191 90.1571 17.8191 89.1554 19.0615L84.6575 24.6423C84.4541 24.8928 84.3847 25.2284 84.4789 25.5441L86.4775 32.4524C86.9634 34.1256 86.4774 35.8991 85.203 37.0813C85.1236 37.1565 85.0244 37.1966 84.9401 37.2667L85.8328 37.6174C87.9503 38.449 90.0926 36.4601 89.4529 34.2559L87.4544 27.3475C87.2015 26.4708 87.3899 25.529 87.9602 24.8227L92.4581 19.2419V19.2369Z" fill="#002A3A"/>
<path d="M72.9959 35.4837L67.5508 39.236C68.4335 39.9323 69.708 40.1076 70.7792 39.3712L75.5994 36.0498L73.8935 35.3835C73.591 35.2633 73.2537 35.3084 72.9909 35.4887L72.9959 35.4837Z" fill="#002A3A"/>
<path d="M78.6728 11.4281L79.9324 11.4682L77.2099 7.19998C76.6098 6.26317 75.623 5.87241 74.6758 5.95257L77.8843 10.9773C78.0579 11.2528 78.3554 11.4181 78.6728 11.4281Z" fill="#002A3A"/>
<path d="M104.521 48.6937L100.449 50.6374C100.97 51.2035 101.813 51.459 102.611 51.0783L106.217 49.36L105.136 48.7237C104.947 48.6135 104.714 48.6035 104.521 48.6937Z" fill="#002A3A"/>
<path d="M118.48 36.574L118.123 36.5039C118.312 37.566 117.975 38.638 117.171 39.3644L113.541 42.6408C113.377 42.791 113.298 43.0115 113.323 43.2269L113.938 48.1013C114.087 49.2836 113.566 50.4308 112.584 51.0921C112.525 51.1322 112.45 51.1472 112.391 51.1873L112.956 51.5179C114.3 52.3044 115.951 51.1973 115.758 49.6443L115.143 44.7649C115.064 44.1487 115.292 43.5275 115.753 43.1167L119.383 39.8404C120.538 38.7933 120.008 36.8646 118.485 36.569L118.48 36.574Z" fill="#002A3A"/>
<path d="M110.895 33.0802L111.738 33.2406L110.354 30.0644C110.052 29.3681 109.427 28.9974 108.777 28.9473L110.409 32.6895C110.498 32.8899 110.677 33.0352 110.895 33.0802Z" fill="#002A3A"/>
<path d="M130.746 23.3518L131.232 23.492L130.592 21.5683C130.453 21.1475 130.106 20.902 129.734 20.8369L130.488 23.1013C130.528 23.2265 130.627 23.3167 130.751 23.3518H130.746Z" fill="#002A3A"/>
<path d="M134.969 25.8023L134.766 25.7422C134.82 26.3684 134.567 26.9796 134.056 27.3603L131.765 29.0736C131.661 29.1488 131.602 29.274 131.607 29.4043L131.706 32.2798C131.731 32.9762 131.369 33.6174 130.759 33.948C130.719 33.9681 130.679 33.9781 130.645 33.9931L130.952 34.2135C131.696 34.7446 132.717 34.1885 132.683 33.2717L132.584 30.3962C132.569 30.0305 132.737 29.6848 133.025 29.4694L135.316 27.7561C136.045 27.21 135.837 26.0528 134.964 25.8023H134.969Z" fill="#002A3A"/>
<path d="M126.189 32.1195L123.715 33.0313C123.988 33.387 124.464 33.5824 124.955 33.402L127.147 32.5955L126.551 32.1696C126.447 32.0945 126.313 32.0745 126.194 32.1195H126.189Z" fill="#002A3A"/>
<path d="M85.7376 13.4221L78.6163 13.2066C77.7138 13.1816 76.8856 12.7057 76.3947 11.9392L72.5315 5.89251C71.3017 3.96379 68.4105 4.29944 67.6468 6.45861L65.2466 13.2367C64.9441 14.0934 64.2399 14.7446 63.3671 14.9801L56.4789 16.8236C54.282 17.4098 53.7068 20.2903 55.502 21.693L61.1355 26.0965C61.8496 26.6526 62.2463 27.5293 62.1968 28.4411L61.805 35.6249C61.681 37.9144 64.2102 39.3622 66.0897 38.0647L71.9761 34.0118C72.72 33.4958 73.6672 33.3906 74.5102 33.7162L81.1554 36.3163C83.2729 37.1429 85.4153 35.159 84.7755 32.9548L82.777 26.0464C82.5241 25.1697 82.7126 24.2279 83.2829 23.5216L87.7808 17.9408C89.2139 16.1623 88.0089 13.4922 85.7376 13.4221Z" fill="#FFAE3B"/>
<path d="M115.471 35.1888L110.691 34.2721C110.086 34.1568 109.575 33.746 109.327 33.1749L107.363 28.6762C106.738 27.2435 104.754 27.1533 104.006 28.531L101.665 32.8443C101.367 33.3904 100.827 33.7561 100.212 33.8162L95.3669 34.3121C93.8246 34.4724 93.1254 36.3511 94.1916 37.4933L97.5291 41.0752C97.9506 41.5311 98.1242 42.1623 97.9952 42.7735L96.9637 47.5778C96.6364 49.1107 98.1886 50.3581 99.5921 49.6918L103.996 47.5928C104.556 47.3273 105.206 47.3573 105.736 47.6679L109.942 50.1427C111.286 50.9342 112.937 49.8271 112.744 48.2691L112.129 43.3897C112.049 42.7735 112.277 42.1573 112.739 41.7415L116.369 38.4652C117.524 37.4181 116.994 35.4894 115.471 35.1938V35.1888Z" fill="#FFAE3B"/>
<path d="M133.29 24.8332L130.547 24.0417C130.2 23.9415 129.923 23.676 129.809 23.3303L128.901 20.6C128.613 19.7283 127.458 19.573 126.952 20.3345L125.36 22.7241C125.157 23.0247 124.82 23.2101 124.463 23.2151L121.611 23.2451C120.704 23.2552 120.198 24.3122 120.758 25.0336L122.514 27.303C122.737 27.5885 122.806 27.9693 122.697 28.3199L121.844 31.0652C121.571 31.9419 122.415 32.7535 123.267 32.4379L125.945 31.451C126.283 31.3257 126.664 31.3759 126.957 31.5863L129.278 33.2545C130.017 33.7855 131.043 33.2294 131.009 32.3127L130.909 29.4371C130.895 29.0714 131.063 28.7257 131.351 28.5053L133.642 26.792C134.371 26.2459 134.163 25.0887 133.29 24.8382V24.8332Z" fill="#FFAE3B"/>
<path d="M81.4141 77.905C81.7711 77.8549 81.9397 77.7597 81.9794 77.4141C81.7711 77.5493 81.5777 77.7146 81.4141 77.905Z" fill="#002A3A"/>
<path d="M209.355 77.905C209.713 77.8549 209.881 77.7597 209.921 77.4141C209.713 77.5493 209.519 77.7146 209.355 77.905Z" fill="#002A3A"/>
<path d="M81.0483 77.9559C81.207 77.9409 81.3161 77.9259 81.4301 77.9108C81.5987 77.7205 81.7872 77.5551 81.9954 77.4199C82.0153 77.2646 82.0153 77.0592 81.9954 76.7736C82.0054 75.7266 81.9161 75.4411 81.8863 75.3709C81.7475 75.1505 81.3656 75.0303 80.9292 75.0303C80.5722 75.0303 80.1755 75.1104 79.8432 75.2858C79.382 75.5262 79.02 76.438 79.2283 77.2896C79.2779 77.49 79.4266 78.0912 81.0383 77.9559H81.0483Z" fill="#002A3A"/>
<path d="M92.5926 82.5592C92.4042 83.506 92.0471 84.6031 90.7974 85.565C88.8534 87.0629 86.0466 86.9226 83.9638 85.3947C82.2826 86.3265 80.4577 86.7974 78.6079 86.8024C77.6657 86.8024 76.7235 86.6771 75.7812 86.4317C78.3154 88.5758 83.0265 89.8482 87.331 86.7422C88.8782 88.6058 91.3677 88.9014 92.8852 87.7342C93.5745 87.2031 93.8473 86.6471 94.0159 85.8004C94.4374 83.6763 94.5118 77.4894 94.3233 73.667C93.8373 72.0238 93.3513 70.4057 92.8654 68.8076C93.1331 72.4296 93.1183 79.9291 92.5976 82.5592H92.5926Z" fill="#002A3A"/>
<path d="M108.386 83.4669C107.746 84.2734 106.045 86.4226 102.975 86.4226C102.693 86.4226 102.44 86.3825 102.172 86.3625C102.598 87.1289 103.327 87.6399 103.908 87.8654C104.622 88.1459 105.425 88.221 106.139 88.221C108.177 88.221 109.387 86.9185 110.161 85.9417C111.505 84.2434 112.869 81.6083 113.989 78.7377C113.489 77.34 113.176 75.8221 113.092 74.209C111.802 77.8811 110.072 81.3428 108.391 83.4669H108.386Z" fill="#002A3A"/>
<path d="M103.796 70.1C103.935 69.4688 104.014 68.7925 104.054 68.1062C103.86 67.1744 103.677 66.3127 103.493 65.5713C103.295 64.7447 102.948 64.1435 102.531 63.6826C102.809 65.0002 103.087 66.448 103.364 67.8857C103.503 68.6121 103.647 69.3686 103.796 70.1Z" fill="#002A3A"/>
<path d="M69.9182 66.8789C69.3231 67.5702 68.6338 68.1514 67.9098 68.5071C66.065 69.4188 64.1062 69.0782 62.7027 67.6354C62.7027 67.6654 62.7027 67.6905 62.6978 67.7255C62.544 71.3075 62.6085 76.7981 62.7226 80.7457C62.7821 82.8347 62.3209 84.3677 61.3092 85.4398C60.3868 86.4166 59.0429 86.9326 57.332 86.9928C57.8825 87.9246 58.8346 88.8313 60.2976 88.8063C63.3772 88.7562 64.1805 86.9978 64.1062 84.3927C63.9772 79.9291 63.9376 74.674 64.0814 71.2423C64.1062 70.6111 64.2202 69.9298 64.6765 69.4539C64.979 69.1383 65.946 68.7124 66.5262 69.2986C66.6651 69.4439 66.799 69.5942 66.9229 69.7495C68.5198 71.6982 70.7563 70.7163 72.0308 68.9679C71.7729 68.8377 71.5151 68.6974 71.277 68.5071C70.6918 68.0512 70.2406 67.4951 69.9182 66.8789Z" fill="#002A3A"/>
<path d="M127.374 70.197C126.729 69.4205 126.198 68.5337 125.95 67.5869C125.42 67.8424 124.944 68.2081 124.542 68.674C123.471 69.9164 122.97 71.75 123.173 73.7087C123.292 74.8509 123.838 75.8378 124.542 76.3338C124.577 73.8039 125.588 71.5395 127.369 70.197H127.374Z" fill="#002A3A"/>
<path d="M136.695 65.2017C137.469 66.1886 137.955 67.2707 138.143 67.7266C138.178 67.8118 138.193 67.912 138.228 67.9971C138.773 67.2657 138.808 66.1686 138.555 65.4722C138.342 64.8911 138.005 64.4453 137.543 64.0996C137.444 64.0245 137.325 63.9493 137.196 63.8691C137.102 64.3 136.973 64.7158 136.765 65.0865C136.745 65.1266 136.72 65.1666 136.695 65.2017Z" fill="#002A3A"/>
<path d="M138.185 79.3349C138.607 78.0925 139.45 77.1156 140.521 76.4994C140.511 74.9464 140.268 73.3934 139.698 72.0057C139.519 71.5749 139.246 71.0288 138.909 70.5078C139.266 72.7121 139.177 75.1618 138.562 77.5965C137.258 82.7364 132.646 86.4787 127.087 86.8995C126.665 86.9345 126.249 86.9496 125.842 86.9496C124.543 86.9496 123.308 86.7843 122.152 86.4687C124.176 88.0918 126.863 88.9534 130.117 88.703C133.439 88.4525 136.494 86.7843 138.383 84.1642C137.679 82.7565 137.59 81.0983 138.19 79.3349H138.185Z" fill="#002A3A"/>
<path d="M45.8214 62.1776C46.4859 62.6135 47.1206 63.0844 47.7257 63.5954C47.9141 63.7557 48.0778 63.931 48.2513 64.1013C49.5754 63.2247 50.7259 62.2427 51.6781 61.1506C52.0996 59.803 52.8831 59.0015 53.4485 58.5707C54.7825 55.9857 55.1891 52.9498 54.4006 49.4681C54.1378 48.3008 53.6716 47.2237 53.0865 46.2168C54.2915 52.7695 51.7574 58.3653 45.8164 62.1826L45.8214 62.1776Z" fill="#002A3A"/>
<path d="M30.5356 55.27C30.9324 53.4364 30.372 52.1439 29.1768 51.5127C29.1521 51.6981 29.1521 51.8634 29.1124 52.0587C28.6413 54.253 28.5173 56.1116 28.4727 57.7698C29.038 57.7648 29.5885 57.7347 30.129 57.6896C30.2282 56.9231 30.3571 56.1216 30.5406 55.2649L30.5356 55.27Z" fill="#002A3A"/>
<path d="M16.9615 50.8828C15.8408 51.8647 14.5415 52.3457 13.2422 52.3306C13.4306 52.5761 13.634 52.8166 13.867 53.032C14.7993 53.8937 15.8705 54.2493 16.9268 54.0991C16.9764 52.5861 17.2095 51.3437 17.5566 50.3418C17.3632 50.5272 17.1648 50.7075 16.9615 50.8878V50.8828Z" fill="#002A3A"/>
<path d="M51.4589 77.3896C50.6952 79.654 49.3216 81.713 47.4421 83.3361C44.0947 86.2267 40.0332 87.9751 35.0195 88.6714C32.54 89.0171 30.0108 89.1874 27.447 89.1874C23.926 89.1874 20.3356 88.8618 16.7105 88.2156C16.4725 88.1755 16.2196 88.1003 15.9766 88.0402C16.532 88.6013 17.2511 89.0772 18.1437 89.4329C18.7983 89.6984 19.4876 89.9138 20.1819 90.0391C26.0783 91.0961 32.0143 91.3115 37.9355 90.4849C42.1705 89.8938 46.1229 88.436 49.4455 85.5654C50.4572 84.6937 51.2804 83.6918 51.9152 82.6198C51.8953 82.5296 51.8606 82.4344 51.8457 82.3492C51.697 81.5727 51.5631 79.7091 51.4589 77.3896Z" fill="#002A3A"/>
<path d="M39.478 46.2104C38.6449 45.464 37.4845 44.8578 35.9174 44.3668C31.36 42.9241 26.9117 43.405 23.0039 45.6894C23.7626 45.6093 24.566 45.6543 25.4041 45.8197C26.1579 45.97 26.8075 46.2655 27.3679 46.6663C31.1468 45.0732 35.2826 44.9129 39.478 46.2054V46.2104Z" fill="#002A3A"/>
<path d="M29.6129 69.8844C32.0379 69.664 35.1572 69.3434 38.1178 70.0748C37.8301 69.7742 37.5127 69.4937 37.1309 69.2632C34.4282 67.6451 31.1056 67.7002 28.2045 67.9407C28.1648 70.5457 28.145 74.2278 28.3682 77.2086C28.755 77.2386 29.1715 77.2587 29.598 77.2787C29.5385 74.4933 29.5881 71.6979 29.6178 69.8844H29.6129Z" fill="#002A3A"/>
<path d="M220.538 82.5592C220.349 83.506 219.987 84.6031 218.743 85.565C216.799 87.0679 213.992 86.9276 211.909 85.3947C210.228 86.3265 208.403 86.7974 206.553 86.8024C205.611 86.8024 204.664 86.6771 203.727 86.4317C206.261 88.5758 210.977 89.8482 215.276 86.7422C216.824 88.6058 219.313 88.9014 220.83 87.7342C221.52 87.2031 221.793 86.6471 221.961 85.8004C222.383 83.6763 222.457 77.4944 222.274 73.667C221.788 72.0238 221.302 70.4057 220.816 68.8076C221.078 72.4296 221.069 79.9291 220.548 82.5592H220.538Z" fill="#002A3A"/>
<path d="M208.985 77.9559C209.143 77.9409 209.253 77.9259 209.367 77.9108C209.535 77.7205 209.724 77.5551 209.932 77.4199C209.952 77.2646 209.952 77.0592 209.932 76.7736C209.942 75.7266 209.853 75.4361 209.823 75.3709C209.684 75.1505 209.302 75.0303 208.866 75.0303C208.509 75.0303 208.112 75.1104 207.785 75.2858C207.323 75.5262 206.961 76.438 207.17 77.2896C207.219 77.49 207.368 78.0912 208.98 77.9559H208.985Z" fill="#002A3A"/>
<path d="M236.296 83.4669C235.656 84.2734 233.955 86.4226 230.885 86.4226C230.603 86.4226 230.35 86.3825 230.082 86.3625C230.509 87.1289 231.238 87.6399 231.818 87.8654C232.532 88.1459 233.335 88.221 234.049 88.221C236.088 88.221 237.298 86.9185 238.071 85.9417C239.415 84.2434 240.779 81.6083 241.9 78.7377C241.399 77.34 241.086 75.8221 241.002 74.209C239.713 77.8811 237.982 81.3428 236.301 83.4669H236.296Z" fill="#002A3A"/>
<path d="M231.764 70.1028C231.902 69.4716 231.982 68.7953 232.021 68.109C231.833 67.1822 231.645 66.3155 231.466 65.5791C231.263 64.7525 230.916 64.1513 230.504 63.6904C230.782 65.008 231.059 66.4608 231.337 67.8936C231.476 68.62 231.62 69.3714 231.764 70.1078V70.1028Z" fill="#002A3A"/>
<path d="M197.864 66.8789C197.268 67.5702 196.579 68.1514 195.855 68.5071C194.01 69.4188 192.051 69.0782 190.648 67.6354C190.648 67.6654 190.648 67.6905 190.643 67.7255C190.489 71.3175 190.554 76.8031 190.668 80.7457C190.727 82.8347 190.266 84.3677 189.255 85.4398C188.332 86.4166 186.988 86.9326 185.277 86.9928C185.828 87.9246 186.78 88.8313 188.243 88.8063C191.322 88.7562 192.126 86.9978 192.051 84.3927C191.923 79.9291 191.883 74.674 192.027 71.2423C192.051 70.6111 192.166 69.9298 192.622 69.4539C192.924 69.1383 193.891 68.7124 194.472 69.2986C194.615 69.4439 194.744 69.5942 194.868 69.7495C196.465 71.6982 198.702 70.7163 199.976 68.9679C199.718 68.8377 199.46 68.6974 199.222 68.5071C198.637 68.0512 198.186 67.4951 197.864 66.8789Z" fill="#002A3A"/>
<path d="M264.646 65.2017C265.419 66.1936 265.905 67.2707 266.094 67.7266C266.128 67.8118 266.143 67.912 266.173 67.9971C266.718 67.2657 266.753 66.1686 266.5 65.4722C266.287 64.8911 265.95 64.4453 265.489 64.0996C265.389 64.0245 265.27 63.9493 265.141 63.8691C265.047 64.3 264.918 64.7208 264.71 65.0865C264.69 65.1266 264.665 65.1666 264.641 65.2017H264.646Z" fill="#002A3A"/>
<path d="M255.31 70.197C254.661 69.4205 254.135 68.5337 253.887 67.5869C253.356 67.8424 252.885 68.2081 252.483 68.669C251.412 69.9114 250.911 71.7449 251.115 73.7037C251.234 74.8459 251.779 75.8328 252.483 76.3288C252.518 73.7989 253.53 71.5345 255.31 70.197Z" fill="#002A3A"/>
<path d="M267.608 72.0135C267.429 71.5827 267.157 71.0366 266.819 70.5156C267.176 72.7199 267.087 75.1696 266.472 77.6043C265.168 82.7442 260.556 86.4865 254.997 86.9073C254.575 86.9424 254.159 86.9574 253.752 86.9574C252.453 86.9574 251.218 86.7921 250.062 86.4764C252.086 88.0996 254.774 88.9613 258.027 88.7108C262.624 88.3601 266.75 85.3342 267.915 80.7504C268.605 78.0351 268.724 74.7087 267.613 72.0185L267.608 72.0135Z" fill="#002A3A"/>
<path d="M157.554 69.8844C159.979 69.664 163.099 69.3434 166.059 70.0748C165.776 69.7742 165.454 69.4937 165.072 69.2632C162.37 67.6451 159.047 67.7002 156.146 67.9407C156.106 70.5457 156.086 74.2278 156.31 77.2086C156.696 77.2386 157.113 77.2587 157.534 77.2787C157.475 74.4933 157.525 71.6979 157.554 69.8894V69.8844Z" fill="#002A3A"/>
<path d="M167.423 46.2104C166.59 45.464 165.43 44.8578 163.863 44.3668C159.305 42.9241 154.857 43.405 150.949 45.6894C151.703 45.6093 152.511 45.6543 153.349 45.8197C154.103 45.97 154.753 46.2655 155.313 46.6663C159.092 45.0732 163.228 44.9129 167.418 46.2054L167.423 46.2104Z" fill="#002A3A"/>
<path d="M158.477 55.27C158.874 53.4364 158.313 52.1439 157.118 51.5127C157.093 51.6981 157.098 51.8634 157.054 52.0587C156.583 54.253 156.464 56.1116 156.414 57.7698C156.979 57.7698 157.53 57.7497 158.07 57.7097C158.17 56.9382 158.299 56.1266 158.482 55.2649L158.477 55.27Z" fill="#002A3A"/>
<path d="M179.4 77.3896C178.637 79.654 177.263 81.713 175.383 83.3361C172.036 86.2267 167.975 87.9751 162.961 88.6714C160.481 89.0171 157.952 89.1874 155.388 89.1874C151.867 89.1874 148.277 88.8618 144.652 88.2156C144.414 88.1755 144.166 88.1053 143.918 88.0402C144.473 88.6013 145.192 89.0772 146.085 89.4329C146.74 89.6984 147.429 89.9138 148.123 90.0391C154.02 91.0961 159.956 91.3115 165.877 90.4849C170.112 89.8938 174.064 88.436 177.387 85.5654C178.399 84.6937 179.222 83.6918 179.857 82.6198C179.837 82.5296 179.802 82.4344 179.787 82.3492C179.638 81.5727 179.504 79.7091 179.4 77.3896Z" fill="#002A3A"/>
<path d="M173.763 62.1776C174.427 62.6135 175.067 63.0844 175.667 63.5954C175.856 63.7557 176.019 63.931 176.193 64.1013C177.517 63.2247 178.667 62.2427 179.619 61.1506C180.041 59.803 180.825 58.9965 181.39 58.5707C182.724 55.9857 183.131 52.9498 182.342 49.4681C182.079 48.3008 181.613 47.2237 181.028 46.2168C182.233 52.7745 179.704 58.3653 173.758 62.1826L173.763 62.1776Z" fill="#002A3A"/>
<path d="M144.907 50.8828C143.786 51.8647 142.487 52.3457 141.188 52.3306C141.376 52.5761 141.579 52.8116 141.812 53.032C142.745 53.8937 143.816 54.2493 144.872 54.0991C144.922 52.5861 145.155 51.3437 145.502 50.3418C145.309 50.5272 145.11 50.7075 144.907 50.8878V50.8828Z" fill="#002A3A"/>
<path d="M84.3546 59.2074C80.1592 58.005 74.0744 59.9287 72.2891 61.8224C71.8825 62.2532 71.4758 62.9145 71.2923 63.5157C70.8708 64.8933 71.2675 66.2409 72.3536 67.0826C73.3603 67.8641 74.7786 67.8991 75.8101 66.9523C77.6697 65.249 79.5641 65.0236 80.5212 65.0035C82.8371 64.9535 83.6256 66.3562 83.3578 69.1115C80.8832 67.8891 76.9953 68.1346 74.5158 69.6125C68.9913 72.9038 70.0476 78.69 71.0692 80.8993C72.4627 83.9151 78.6764 87.1263 84.191 83.1436C85.7382 85.0122 88.2277 85.3028 89.7452 84.1355C90.4345 83.6045 90.7072 83.0484 90.8758 82.2018C91.3817 79.6418 91.3916 71.1705 91.0395 68.0595C90.5535 63.7762 88.4409 60.3796 84.3596 59.2074H84.3546ZM81.2056 79.737C79.3211 79.9023 77.8979 79.2911 77.516 77.7131C77.1342 76.1551 77.7491 74.3666 79.0335 73.6903C80.4022 72.9689 82.5297 73.024 83.4223 74.4568C83.7694 75.0129 83.7843 76.0399 83.7744 76.6761C83.8885 78.8453 82.9413 79.5867 81.2056 79.742V79.737Z" fill="#54C8E8"/>
<path d="M107.843 59.3088C104.808 60.3609 104.981 62.9659 105.289 63.8025C107.084 68.727 104.5 74.4831 103.28 75.5752C102.492 73.4211 101.327 65.9366 100.364 61.984C99.6652 59.1084 97.2948 58.6826 95.8666 59.0383C94.5276 59.3689 92.2563 60.8368 93.2333 63.8927C95.1376 69.8291 96.7493 75.6053 98.7775 82.2682C99.0999 83.3302 100.052 83.9965 100.751 84.272C101.465 84.5476 102.269 84.6277 102.983 84.6277C105.021 84.6277 106.231 83.3252 107.005 82.3483C110.858 77.4839 114.885 64.9798 112.822 61.0873C112.286 60.0753 110.655 58.3369 107.843 59.3138V59.3088Z" fill="#54C8E8"/>
<path d="M65.7153 59.1314C63.9697 59.2065 61.4306 60.5291 60.9992 61.6362C60.9744 61.1102 60.7066 60.5641 60.3843 60.2786C59.0056 59.0412 56.0996 58.8659 54.5821 59.9429C53.9523 60.3888 53.2679 61.2405 53.1688 62.7684C52.8415 67.8031 53.1886 79.8514 53.6002 82.0206C53.7986 83.0826 54.8648 85.2518 57.1162 85.2168C60.1958 85.1667 60.9992 83.4083 60.9248 80.8032C60.7959 76.3396 60.7562 71.0845 60.9 67.6528C60.9248 67.0216 61.0389 66.3403 61.4951 65.8644C61.7976 65.5488 62.7646 65.123 63.3448 65.7091C63.4837 65.8544 63.6176 66.0047 63.7416 66.16C66.2806 69.2559 70.4314 64.9526 69.7718 61.9418C69.39 60.1984 67.7039 59.0462 65.7103 59.1314H65.7153Z" fill="#54C8E8"/>
<path d="M133.941 65.1249C135.553 64.8243 135.791 62.9106 135.414 61.8786C135.201 61.2975 134.864 60.8516 134.403 60.5059C133.485 59.8096 131.085 58.7976 128.7 58.8177C125.511 58.8477 122.317 59.5341 119.426 61.9487C117.413 63.632 115.191 66.6278 114.859 72.2135C114.403 79.8583 119.059 85.7096 126.944 85.1084C131.541 84.7578 135.667 81.7319 136.833 77.1481C137.522 74.4328 137.641 71.1064 136.53 68.4162C136.094 67.3542 135.097 65.6258 133.946 65.1249H133.941ZM124.678 78.3604C122.907 77.8995 121.643 76.0059 121.425 73.8968C120.968 69.4933 123.448 65.4805 127.787 65.3503C126.999 67.1438 128.605 69.2127 129.915 70.1746C130.797 70.8259 131.14 72.0633 131.169 72.975C131.303 77.108 127.936 79.2071 124.678 78.3604Z" fill="#54C8E8"/>
<path d="M51.242 45.8751C50.0717 40.6851 45.3258 37.0281 40.3419 35.3298C37.2623 34.2827 21.7205 30.6608 10.4187 42.2632C8.36069 44.3772 8.65328 47.5484 10.6915 49.442C12.2437 50.8798 14.1926 50.9299 15.7845 49.5322C16.4787 48.921 17.1185 48.2547 17.7631 47.5885C22.99 42.193 29.6551 40.4998 36.454 42.6489C39.0427 43.4655 41.8743 44.9183 42.6826 48.2197C43.4761 51.4709 41.7652 53.9958 39.4592 55.9546C35.8738 59.0105 31.2817 59.8421 26.6449 59.4964C26.6945 57.4024 26.6796 54.8675 27.3689 51.6813C27.8599 49.417 26.9028 47.9541 25.0679 47.5784C21.6759 46.8921 18.7599 48.7908 18.6806 54.4617C18.6161 59.0907 18.2095 70.6129 18.8492 77.9421C17.3615 77.7617 16.8705 77.7066 15.5365 77.6064C13.9099 77.4862 12.4321 78.3829 11.9064 79.9259C10.9791 82.6411 12.2635 84.7502 15.0009 85.8473C15.6555 86.1129 16.3448 86.3283 17.0391 86.4535C22.9355 87.5106 28.8715 87.726 34.7927 86.8994C39.0278 86.3082 42.9802 84.8504 46.3028 81.9799C51.614 77.391 51.8024 69.3655 46.5904 64.977C45.2812 63.8749 43.7736 62.9381 42.1322 62.2267C42.5041 62.0213 42.8959 61.8009 43.2926 61.5905C49.4964 58.2891 52.8538 53.0139 51.247 45.8751H51.242ZM38.9881 76.7047C37.2921 78.1625 35.2291 78.7586 33.1066 79.0141C31.4156 79.2145 28.1227 79.0492 26.7441 78.8488C26.2978 74.9613 26.4168 69.2854 26.4664 66.2946C29.7592 65.994 34.3315 65.498 38.0508 67.7223C41.4776 69.7713 42.0429 74.0846 38.9931 76.7047H38.9881Z" fill="#54C8E8"/>
<path d="M212.3 59.2074C208.105 58.005 202.02 59.9287 200.234 61.8224C199.828 62.2532 199.421 62.9145 199.238 63.5157C198.816 64.8933 199.213 66.2409 200.299 67.0826C201.306 67.8641 202.724 67.8991 203.755 66.9523C205.615 65.249 207.509 65.0236 208.467 65.0035C210.782 64.9535 211.571 66.3562 211.303 69.1115C208.829 67.8891 204.941 68.1346 202.461 69.6125C196.937 72.9038 197.993 78.69 199.015 80.8993C200.408 83.9151 206.622 87.1263 212.136 83.1436C213.684 85.0122 216.173 85.3028 217.69 84.1355C218.38 83.6045 218.653 83.0484 218.821 82.2018C219.327 79.6418 219.337 71.1705 218.985 68.0595C218.499 63.7762 216.386 60.3796 212.305 59.2074H212.3ZM209.151 79.737C207.266 79.9023 205.843 79.2911 205.461 77.7131C205.079 76.1551 205.694 74.3666 206.979 73.6903C208.348 72.9689 210.475 73.024 211.368 74.4568C211.715 75.0129 211.73 76.0399 211.72 76.6761C211.834 78.8453 210.887 79.5867 209.151 79.742V79.737Z" fill="#54C8E8"/>
<path d="M235.753 59.3088C232.718 60.3609 232.892 62.9659 233.199 63.8025C234.994 68.727 232.411 74.4831 231.191 75.5752C230.402 73.4211 229.237 65.9366 228.275 61.984C227.575 59.1084 225.205 58.6826 223.777 59.0383C222.438 59.3689 220.166 60.8368 221.143 63.8927C223.048 69.8291 224.659 75.6053 226.688 82.2682C227.01 83.3302 227.962 83.9965 228.661 84.272C229.376 84.5476 230.179 84.6277 230.893 84.6277C232.931 84.6277 234.141 83.3252 234.915 82.3483C238.768 77.4839 242.795 64.9798 240.732 61.0873C240.196 60.0753 238.565 58.3369 235.753 59.3138V59.3088Z" fill="#54C8E8"/>
<path d="M193.657 59.1314C191.911 59.2065 189.372 60.5291 188.941 61.6362C188.916 61.1102 188.648 60.5641 188.326 60.2786C186.947 59.0412 184.041 58.8659 182.524 59.9429C181.894 60.3888 181.209 61.2405 181.11 62.7684C180.783 67.8031 181.13 79.8514 181.542 82.0206C181.74 83.0826 182.806 85.2518 185.058 85.2168C188.137 85.1667 188.941 83.4083 188.866 80.8032C188.737 76.3396 188.698 71.0845 188.841 67.6528C188.866 67.0216 188.98 66.3403 189.436 65.8644C189.739 65.5488 190.706 65.123 191.286 65.7091C191.425 65.8544 191.559 66.0047 191.683 66.16C194.222 69.2559 198.373 64.9526 197.713 61.9418C197.331 60.1984 195.645 59.0462 193.652 59.1314H193.657Z" fill="#54C8E8"/>
<path d="M264.435 68.4162C263.999 67.3542 263.002 65.6258 261.852 65.1249C263.463 64.8243 263.701 62.9106 263.324 61.8786C263.111 61.2975 262.774 60.8516 262.313 60.5059C261.395 59.8096 258.995 58.7976 256.61 58.8177C253.421 58.8477 250.227 59.5341 247.336 61.9487C245.323 63.632 243.101 66.6278 242.769 72.2135C242.313 79.8583 246.969 85.7096 254.854 85.1085C259.451 84.7578 263.577 81.7319 264.743 77.1481C265.432 74.4328 265.551 71.1064 264.44 68.4162H264.435ZM252.593 78.3654C250.823 77.9045 249.558 76.0109 249.34 73.9018C248.884 69.4983 251.363 65.4856 255.702 65.3553C254.914 67.1488 256.521 69.2178 257.83 70.1796C258.712 70.8309 259.055 72.0683 259.084 72.98C259.218 77.113 255.851 79.2121 252.593 78.3654Z" fill="#54C8E8"/>
<path d="M179.187 45.8751C178.017 40.6851 173.271 37.0281 168.287 35.3298C165.208 34.2827 149.666 30.6608 138.364 42.2632C136.306 44.3772 136.599 47.5484 138.637 49.442C140.189 50.8798 142.138 50.9299 143.73 49.5322C144.424 48.921 145.064 48.2547 145.708 47.5885C150.935 42.193 157.6 40.4998 164.399 42.6489C166.988 43.4655 169.82 44.9183 170.628 48.2197C171.421 51.4709 169.711 53.9958 167.405 55.9546C163.819 59.0105 159.227 59.8421 154.59 59.4964C154.64 57.4024 154.625 54.8675 155.314 51.6813C155.805 49.417 154.848 47.9541 153.013 47.5784C149.621 46.8921 146.705 48.7908 146.626 54.4617C146.561 59.0907 146.155 70.6129 146.795 77.9421C145.307 77.7617 144.816 77.7066 143.482 77.6064C141.855 77.4862 140.377 78.3829 139.852 79.9259C138.924 82.6411 140.209 84.7502 142.946 85.8473C143.601 86.1129 144.29 86.3283 144.984 86.4535C150.881 87.5106 156.817 87.726 162.738 86.8994C166.973 86.3082 170.925 84.8504 174.248 81.9799C179.559 77.391 179.748 69.3655 174.536 64.977C173.227 63.8749 171.719 62.9381 170.077 62.2267C170.449 62.0213 170.841 61.8009 171.238 61.5905C177.442 58.2891 180.799 53.0139 179.192 45.8751H179.187ZM166.933 76.7047C165.237 78.1625 163.174 78.7586 161.052 79.0141C159.361 79.2145 156.068 79.0492 154.689 78.8488C154.243 74.9613 154.362 69.2854 154.412 66.2946C157.705 65.994 162.277 65.498 165.996 67.7223C169.423 69.7713 169.988 74.0846 166.938 76.7047H166.933Z" fill="#54C8E8"/>
</svg>
