<svg width="74" height="74" viewBox="0 0 74 74" fill="none" xmlns="http://www.w3.org/2000/svg">
<g clip-path="url(#clip0_3463_44668)">
<path d="M37 74C57.4345 74 74 57.4345 74 37C74 16.5655 57.4345 0 37 0C16.5655 0 0 16.5655 0 37C0 57.4345 16.5655 74 37 74Z" fill="#74BAA7"/>
<path d="M67.3547 22.3442V58.1617C65.106 61.3815 62.3575 64.2282 59.2208 66.5857C58.508 67.1233 57.7755 67.6337 57.0234 68.1185C56.7833 68.2741 56.5417 68.4251 56.297 68.5746C55.3698 69.144 54.4168 69.671 53.4382 70.1573C52.0413 70.8505 50.596 71.4591 49.1054 71.9741C48.3292 72.2429 47.5409 72.4875 46.742 72.705C44.6518 73.2729 42.4892 73.664 40.2692 73.8573C39.5791 73.9192 38.8829 73.96 38.1806 73.9826C37.788 73.9947 37.3953 74.0008 36.9996 74.0008C24.4347 74.0008 13.3317 67.7364 6.64453 58.1617V8.72521C6.64453 6.90995 8.11698 5.4375 9.93225 5.4375H50.448L67.3547 22.3442Z" fill="#F1F1F1"/>
<path d="M35.5586 25.3379H60.4084V28.3583H35.5586V25.3379Z" fill="#444562"/>
<path d="M35.5586 30.9238H60.4084V33.9442H35.5586V30.9238Z" fill="#444562"/>
<path d="M35.5586 44.5176H60.4084V47.538H35.5586V44.5176Z" fill="#444562"/>
<path d="M35.5586 50.1035H60.4084V53.1239H35.5586V50.1035Z" fill="#444562"/>
<path d="M50.4492 19.0565V5.4375L67.3559 22.3442H53.7384C51.9217 22.3442 50.4492 20.8718 50.4492 19.0565Z" fill="#E4E4E4"/>
<path d="M30.2022 37.4952H14.4961V21.7891H30.2022V37.4952ZM17.5165 34.4748H27.1818V24.8095H17.5165V34.4748Z" fill="#444562"/>
<path d="M30.2022 56.6749H14.4961V40.9688H30.2022V56.6749ZM17.5165 53.6545H27.1818V43.9892H17.5165V53.6545Z" fill="#444562"/>
<path d="M14.9336 24.3672L17.0691 22.2317L29.7529 34.9155L27.6174 37.051L14.9336 24.3672Z" fill="#D54980"/>
<path d="M14.9336 34.9141L27.6174 22.2303L29.7529 24.3658L17.0691 37.0496L14.9336 34.9141Z" fill="#D54980"/>
</g>
<defs>
<clipPath id="clip0_3463_44668">
<rect width="74" height="74" fill="white"/>
</clipPath>
</defs>
</svg>
