<svg width="32" height="32" viewBox="0 0 32 32" fill="none" xmlns="http://www.w3.org/2000/svg">
<path d="M0 4C0 1.79086 1.79086 0 4 0H28C30.2091 0 32 1.79086 32 4V28C32 30.2091 30.2091 32 28 32H4C1.79086 32 0 30.2091 0 28V4Z" fill="#BBF0FF"/>
<path opacity="0.4" d="M6.5 13.3687C6.5 9.89518 6.5 8.15843 7.52513 7.07935C8.30318 6.26035 9.44114 6.06295 11.3872 6.01538C11.1841 6.0712 11.0456 6.27396 11.0822 6.49347C11.2817 7.69071 11.3815 8.28933 11.8011 8.6448C12.2207 9.00027 12.8276 9.00027 14.0414 9.00027H15.9586C17.1724 9.00027 17.7793 9.00027 18.1989 8.6448C18.6185 8.28933 18.7183 7.69071 18.9178 6.49348C18.9544 6.27398 18.816 6.0712 18.6128 6.01538C20.5589 6.06295 21.6968 6.26035 22.4749 7.07935C23.5 8.15843 23.5 9.89518 23.5 13.3687V18.0189C23.1612 17.9653 22.8084 18.027 22.5019 18.204C22.3285 18.3041 22.1619 18.4708 21.8285 18.8041L18.5207 22.1119C17.9972 22.6354 17.8715 23.3701 17.7481 24.0914C17.7157 24.2807 17.6835 24.4691 17.6443 24.6525C17.4968 25.3425 17.423 25.6874 17.6179 25.8823C17.6859 25.9504 17.7722 25.9857 17.8851 25.9965C17.4587 26.0002 16.9981 26.0002 16.5 26.0002L13.5 26.0002C10.2002 26.0002 8.55025 26.0002 7.52513 24.9211C6.5 23.8421 6.5 22.1053 6.5 18.6318L6.5 13.3687Z" fill="#3B8FA7"/>
<path d="M23.5 15.0054V13.3728C23.5 9.89712 23.5 8.15927 22.4749 7.07952C21.4497 5.99976 19.7998 5.99976 16.5 5.99976L13.5 5.99976C10.2002 5.99976 8.55025 5.99976 7.52513 7.07952C6.5 8.15927 6.5 9.89712 6.5 13.3728L6.5 18.6393C6.5 22.115 6.5 23.8528 7.52513 24.9326C8.31809 25.7678 9.48489 25.957 11.5 25.9998" stroke="#3B8FA7" stroke-width="1.5" stroke-linecap="round" stroke-linejoin="round"/>
<path d="M11 19.9998H15M11 14.9998L19 14.9998" stroke="#3B8FA7" stroke-width="1.5" stroke-linecap="round"/>
<path d="M14 25.9998H15" stroke="#3B8FA7" stroke-width="1.5" stroke-linecap="round"/>
<path d="M11 5.99976L11.0822 6.49296C11.2817 7.6902 11.3815 8.28882 11.8011 8.64429C12.2207 8.99976 12.8276 8.99976 14.0414 8.99976L15.9586 8.99976C17.1724 8.99976 17.7793 8.99976 18.1989 8.64429C18.6185 8.28882 18.7183 7.6902 18.9178 6.49296L19 5.99976" stroke="#141B34" stroke-width="1.5" stroke-linecap="round" stroke-linejoin="round"/>
<path opacity="0.93" d="M24.7598 18.8782C23.8544 17.8638 23.3112 17.9242 22.7076 18.1053C22.2851 18.1657 20.8365 19.8565 20.2329 20.3949C19.2419 21.374 18.2464 22.382 18.1807 22.5135C17.9931 22.8185 17.8186 23.3589 17.7341 23.9627C17.5771 24.8685 17.3507 25.8882 17.6375 25.9756C17.9242 26.0629 18.7239 25.8951 19.6293 25.7622C20.2329 25.6535 20.6554 25.5327 20.9572 25.3516C21.3797 25.098 22.1644 24.2043 23.5164 22.8758C24.3644 21.983 25.1823 21.3661 25.4238 20.7623C25.6652 19.8565 25.3031 19.3734 24.7598 18.8782Z" stroke="#141B34" stroke-width="1.5"/>
</svg>
