<svg width="74" height="74" viewBox="0 0 74 74" fill="none" xmlns="http://www.w3.org/2000/svg">
<path d="M74 37C74 41.218 73.2947 45.2699 71.9944 49.0469C70.155 54.3945 67.1225 59.1879 63.2171 63.1099C62.1872 64.1429 61.0983 65.1155 59.9536 66.0216C53.6455 71.0173 45.6716 74 37 74C28.3284 74 20.353 71.0158 14.0449 66.0201C12.9002 65.114 11.8113 64.1414 10.7829 63.1084C6.87596 59.1849 3.84347 54.3915 2.00404 49.0424C0.705265 45.2668 0 41.215 0 37C0 16.5654 16.5654 0 37 0C57.4346 0 74 16.5654 74 37Z" fill="#704F85"/>
<path d="M13.1254 24.6063C12.2042 24.6063 13.9394 24.3012 13.1254 24.6063V24.6063Z" fill="#F0CA59"/>
<path d="M58.1388 26.6063C57.3233 26.3012 59.06 26.6063 58.1388 26.6063V26.6063Z" fill="#F0CA59"/>
<path d="M71.9943 29.132V49.0471C66.997 63.5677 53.2164 74.0002 36.9999 74.0002C20.7818 74.0002 6.99966 63.5646 2.00391 49.0425V29.132C2.00391 25.9409 10.307 25.6661 13.125 24.6074L58.1367 26.6069C60.9547 27.6656 71.9943 25.9409 71.9943 29.132Z" fill="#D3D2D2"/>
<path d="M63.2194 63.1087C62.1895 64.1417 61.1006 65.1143 59.9559 66.0204L37.0023 52.3108L14.0472 66.0189C12.9025 65.1128 11.8136 64.1402 10.7852 63.1072L32.9323 49.8809H41.0708L63.2194 63.1087Z" fill="#BABABA"/>
<path d="M71.9966 29.1319C71.9966 31.7502 70.6185 33.3499 68.3703 34.6921L65.686 36.6303L38.4022 56.3349C37.9708 56.5926 37.4855 56.7214 37.0002 56.7214C36.5148 56.7214 36.0296 56.5926 35.5981 56.3349L8.31731 36.6333L5.63021 34.6921C3.38197 33.3499 2.00391 31.7502 2.00391 29.1319H2.00542C2.00542 26.5122 3.38197 24.0856 5.63021 22.742L8.31746 21.1377L35.5981 4.84545C36.0296 4.58781 36.5148 4.45898 37.0002 4.45898C37.4855 4.45898 37.9708 4.58781 38.4022 4.84545L65.686 21.1393L68.3703 22.7421C70.6185 24.0857 71.9951 26.5123 71.9951 29.1321H71.9966V29.1319Z" fill="#BABABA"/>
<path d="M65.6851 4.42143V36.6303L38.4013 56.3349C37.9699 56.5925 37.4846 56.7213 36.9993 56.7213C36.5139 56.7213 36.0287 56.5925 35.5972 56.3349L8.31641 36.6332V4.41992H65.6836C65.6844 4.41992 65.6851 4.42053 65.6851 4.42143Z" fill="#F1F1F1"/>
<path d="M36.9993 52.9758C36.5139 52.9758 36.0287 52.8469 35.5972 52.5893L8.31641 32.8878V36.6325L35.5972 56.334C36.0287 56.5916 36.5139 56.7205 36.9993 56.7205C37.4846 56.7205 37.9699 56.5916 38.4013 56.334L65.6851 36.6295V32.8848L38.4013 52.5893C37.9699 52.8469 37.4846 52.9758 36.9993 52.9758Z" fill="#E4E4E4"/>
<path d="M36.9528 43.0371C36.0817 43.0371 35.2381 42.6928 34.6133 42.068L25.4419 32.8964C24.1496 31.6043 24.1496 29.5092 25.4419 28.217C26.734 26.925 28.8291 26.9247 30.1212 28.217L36.1861 34.2819L46.42 15.7948C47.3049 14.1961 49.3186 13.6173 50.9172 14.5026C52.5161 15.3875 53.0946 17.4011 52.2095 18.9999L39.8479 41.3307C39.3447 42.2399 38.4435 42.8598 37.4145 43.0048C37.2604 43.0264 37.1062 43.0371 36.9528 43.0371Z" fill="#D54980"/>
</svg>
