<svg width="25" height="30" viewBox="0 0 25 30" fill="none" xmlns="http://www.w3.org/2000/svg">
<path d="M6.3737 3.66602C4.2993 3.72825 3.06252 3.95913 2.20673 4.81572C1.03516 5.98838 1.03516 7.87575 1.03516 11.6505L1.03516 20.3252C1.03516 24.1 1.03516 25.9874 2.20673 27.16C3.3783 28.3327 5.26392 28.3327 9.03516 28.3327L15.7018 28.3327C19.4731 28.3327 21.3587 28.3327 22.5302 27.16C23.7018 25.9874 23.7018 24.1 23.7018 20.3252V11.6505C23.7018 7.87575 23.7018 5.98838 22.5302 4.81572C21.6745 3.95913 20.4377 3.72825 18.3633 3.66602" stroke="#141B34" stroke-width="1.5"/>
<path d="M6.37109 3.99935C6.37109 2.71068 7.41576 1.66602 8.70443 1.66602L16.0378 1.66602C17.3264 1.66602 18.3711 2.71068 18.3711 3.99935C18.3711 5.28801 17.3264 6.33268 16.0378 6.33268L8.70443 6.33268C7.41576 6.33268 6.37109 5.28801 6.37109 3.99935Z" stroke="#141B34" stroke-width="1.5" stroke-linejoin="round"/>
<path d="M14.375 13.666H19.0417" stroke="#141B34" stroke-width="1.5" stroke-linecap="round"/>
<path d="M5.70703 15.0007C5.70703 15.0007 6.3737 15.0007 7.04036 16.334C7.04036 16.334 9.15801 13.0007 11.0404 12.334" stroke="#141B34" stroke-width="1.5" stroke-linecap="round" stroke-linejoin="round"/>
<path d="M14.375 21.666H19.0417" stroke="#141B34" stroke-width="1.5" stroke-linecap="round"/>
<path d="M7.04297 21.666H8.3763" stroke="#141B34" stroke-width="2" stroke-linecap="round" stroke-linejoin="round"/>
</svg>
