<svg width="10" height="14" viewBox="0 0 10 14" fill="none" xmlns="http://www.w3.org/2000/svg">
<path d="M0.625 5.30273C0.625 7.71898 2.58375 9.67773 5 9.67773C7.41625 9.67773 9.375 7.71898 9.375 5.30273C9.375 2.88649 7.41625 0.927734 5 0.927734C2.58375 0.927734 0.625 2.88649 0.625 5.30273Z" stroke="#A9A9A9" stroke-linecap="round" stroke-linejoin="round"/>
<path d="M3.25 5.69227C3.25 5.69227 3.6875 5.69227 4.125 6.47005C4.125 6.47005 5.51471 4.52561 6.75 4.13672" stroke="#A9A9A9" stroke-linecap="round" stroke-linejoin="round"/>
<path d="M7.84811 8.51172L8.23907 10.3842C8.49026 11.5873 8.61586 12.1888 8.35787 12.4739C8.09988 12.759 7.65185 12.5137 6.75578 12.0232L5.42958 11.2973C5.21781 11.1814 5.11192 11.1235 5 11.1235C4.88808 11.1235 4.78219 11.1814 4.57042 11.2973L3.24421 12.0232C2.34815 12.5137 1.90012 12.759 1.64213 12.4739C1.38414 12.1888 1.50974 11.5873 1.76093 10.3842L2.15189 8.51172" stroke="#A9A9A9" stroke-linejoin="round"/>
</svg>
