<svg width="15" height="16" viewBox="0 0 15 16" fill="none" xmlns="http://www.w3.org/2000/svg">
<path d="M7.5737 1.19229C4.8722 -0.183847 2.68912 0.613292 1.57077 1.48224C1.40833 1.60806 1.20558 1.76513 1.0713 2.03952C0.936141 2.3157 0.936909 2.58543 0.937599 2.82769L0.9375 14.3246C0.9375 14.7388 1.27329 15.0746 1.6875 15.0746C2.10171 15.0746 2.4375 14.7388 2.4375 14.3246L2.4375 9.98045C2.4375 9.86139 2.4375 9.80186 2.46733 9.74986C2.49716 9.69785 2.54448 9.67018 2.63911 9.61484C3.55333 9.0802 5.1078 8.69872 7.06306 9.69473C9.84921 11.114 12.2591 10.5397 13.4473 9.89024C13.5652 9.82704 13.7972 9.70265 13.9316 9.47606C14.0669 9.24783 14.0641 8.95839 14.0627 8.81268L14.0627 3.13736C14.0627 2.85264 14.0627 2.59359 14.0409 2.39325C14.0213 2.21385 13.97 1.886 13.6927 1.67507C13.5365 1.55634 13.3653 1.52201 13.2352 1.51425C13.1072 1.50661 12.9787 1.5223 12.8649 1.54246C12.6465 1.58113 12.3376 1.6668 12.0151 1.75626C10.9522 2.05095 9.3752 2.10998 7.5737 1.19229Z" fill="#4CB76C"/>
</svg>
