<svg width="30" height="31" viewBox="0 0 30 31" fill="none" xmlns="http://www.w3.org/2000/svg">
<path d="M0 6.76172C0 3.44801 2.68629 0.761719 6 0.761719H24.0001C27.3138 0.761719 30.0001 3.44801 30.0001 6.76172V24.7617C30.0001 28.0754 27.3138 30.7617 24.0001 30.7617H6C2.68629 30.7617 0 28.0754 0 24.7617V6.76172Z" fill="#94E8FF"/>
<g clip-path="url(#clip0_3252_42539)">
<path d="M20.2611 11.384C19.8874 9.72577 18.3687 8.5571 16.7752 8.01578C15.7903 7.68127 10.8205 6.52418 7.20757 10.2313C6.55005 10.906 6.64262 11.9192 7.2955 12.5241C7.79134 12.9833 8.41442 12.9998 8.92369 12.5532C9.14547 12.3587 9.35064 12.1442 9.55654 11.932C11.2277 10.2087 13.3583 9.6671 15.5329 10.3539C16.3602 10.6152 17.2666 11.0781 17.5243 12.1331C17.7778 13.1711 17.2307 13.9782 16.494 14.6048C15.3473 15.5802 13.8793 15.8472 12.3957 15.7358C12.4116 15.0668 12.4067 14.2567 12.6268 13.2387C12.7831 12.5152 12.478 12.0473 11.8909 11.9288C10.8066 11.7099 9.87334 12.3153 9.84794 14.1283C9.82717 15.6078 9.69699 19.2876 9.90216 21.6292C9.4266 21.5722 9.26881 21.5533 8.84308 21.5212C8.32307 21.482 7.84996 21.7692 7.68216 22.2617C7.38612 23.1299 7.79671 23.8021 8.67089 24.1541C8.8807 24.2384 9.10101 24.3082 9.32304 24.3476C11.2079 24.6846 13.1058 24.7536 15.0007 24.4896C16.3555 24.301 17.6186 23.8351 18.6813 22.9176C20.3793 21.4514 20.4392 18.8885 18.7729 17.4857C18.3545 17.1332 17.8723 16.8344 17.347 16.6074C17.4664 16.5418 17.5914 16.4711 17.718 16.4038C19.7025 15.3497 20.7753 13.6644 20.2614 11.384H20.2611ZM16.3426 21.2335C15.8008 21.6987 15.1406 21.8895 14.4621 21.9706C13.9216 22.0352 12.8691 21.9817 12.4272 21.9178C12.2851 20.6755 12.322 18.8627 12.3376 17.907C13.3898 17.8113 14.8524 17.6521 16.0414 18.3635C17.1364 19.0187 17.3179 20.3959 16.3428 21.2333L16.3426 21.2335Z" fill="#1B4D5B"/>
<path d="M11.7761 23.7223C10.6811 23.7223 9.5497 23.6192 8.41344 23.4159C8.19606 23.3772 7.96402 23.3081 7.72368 23.2115C6.71834 22.8065 6.30751 22.0088 6.62528 21.0773C6.80602 20.5463 7.29575 20.2034 7.87267 20.2034C7.90858 20.2034 7.94473 20.2047 7.98087 20.2076C8.3326 20.234 8.50284 20.2515 8.81646 20.2885C8.66942 18.3426 8.72755 15.5965 8.76297 13.9294C8.77054 13.569 8.77714 13.2545 8.7808 13.0038C8.80205 11.4807 9.484 10.5713 10.6046 10.5713C10.749 10.5713 10.8994 10.5868 11.0521 10.6179C11.3823 10.6844 11.6415 10.8503 11.8017 11.0973C11.9807 11.3737 12.0276 11.7405 11.9373 12.1578C11.7426 13.0593 11.7279 13.7823 11.7148 14.4202V14.4333C11.8554 14.4409 11.9959 14.4449 12.1361 14.4449C13.4997 14.4449 14.6299 14.0714 15.4953 13.3356C16.3445 12.6131 16.6611 11.8679 16.4632 11.0574C16.273 10.2789 15.6812 9.75735 14.6001 9.41569C14.0112 9.22983 13.4201 9.13542 12.8432 9.13542C11.3572 9.13542 9.96518 9.76104 8.81744 10.9448L8.77591 10.9876C8.58418 11.1853 8.38609 11.3899 8.17334 11.5765C7.89563 11.8203 7.57639 11.9493 7.25032 11.9493C6.92424 11.9493 6.57692 11.809 6.2909 11.544C5.92257 11.2031 5.7042 10.7283 5.69199 10.2415C5.67978 9.77016 5.85906 9.3203 6.19588 8.97445C8.37778 6.73546 11.0316 6.26562 12.8737 6.26562C14.5984 6.26562 15.826 6.6657 15.9603 6.7113C17.8728 7.36109 19.2228 8.67248 19.5716 10.2195C20.0689 12.4253 19.131 14.2841 16.931 15.4526C16.9188 15.4592 16.9066 15.4656 16.8944 15.472C17.2998 15.6784 17.6772 15.9278 18.0194 16.216C18.8413 16.9079 19.2975 17.8843 19.3044 18.9655C19.3115 20.0969 18.8105 21.1818 17.9297 21.9423C16.9166 22.8169 15.6804 23.3456 14.1507 23.5588C13.374 23.667 12.5752 23.722 11.7765 23.722H11.7761V23.7223ZM11.7248 20.6237C12.024 20.656 12.5 20.6853 12.946 20.6853C13.1971 20.6853 13.4108 20.6757 13.5637 20.6575C14.3348 20.5653 14.8998 20.3454 15.3429 19.9651C15.7476 19.6177 15.9479 19.1587 15.9068 18.6726C15.8639 18.1619 15.5581 17.7009 15.0678 17.4076C14.4885 17.061 13.766 16.8926 12.8588 16.8926C12.4329 16.8926 12.0196 16.9281 11.6495 16.9617C11.6341 17.8759 11.6105 19.4733 11.7248 20.6237Z" fill="#54C8E8"/>
<path d="M12.8734 6.45755C14.3311 6.45755 15.4786 6.7504 15.8992 6.89337C17.4927 7.43469 19.0112 8.60361 19.3851 10.2616C19.899 12.542 18.8263 14.2273 16.8417 15.2814C16.715 15.3487 16.5902 15.4194 16.4707 15.485C16.9963 15.7123 17.4783 16.011 17.8967 16.3633C19.5629 17.7664 19.5031 20.329 17.8051 21.7952C16.7423 22.713 15.4791 23.1786 14.1244 23.3672C13.3416 23.4761 12.5585 23.5284 11.776 23.5284C10.6639 23.5284 9.55302 23.4229 8.4468 23.2252C8.22478 23.1855 8.00446 23.116 7.79465 23.0317C6.92047 22.6797 6.50989 22.0075 6.80568 21.1393C6.96346 20.6769 7.39017 20.3953 7.87257 20.3953C7.90359 20.3953 7.9351 20.3966 7.96661 20.3988C8.39234 20.4308 8.55012 20.4498 9.02568 20.5068C8.82051 18.1652 8.9507 14.4852 8.97146 13.0059C8.99368 11.4263 9.70446 10.7635 10.6043 10.7635C10.7374 10.7635 10.8747 10.778 11.0144 10.8061C11.6018 10.9247 11.9069 11.3925 11.7503 12.116C11.5302 13.1338 11.5351 13.9441 11.5192 14.6131C11.7254 14.6286 11.9311 14.6368 12.1357 14.6368C13.4044 14.6368 14.63 14.3222 15.6175 13.4822C16.3542 12.8555 16.9013 12.0485 16.6478 11.0105C16.3901 9.95543 15.4837 9.4925 14.6564 9.23121C14.0451 9.03819 13.4376 8.94206 12.8424 8.94206C11.3204 8.94206 9.88129 9.5704 8.68006 10.8091C8.47416 11.0213 8.26899 11.2358 8.04721 11.4303C7.79905 11.6482 7.52378 11.7556 7.24948 11.7556C6.96102 11.7556 6.67329 11.6366 6.41927 11.4012C5.76639 10.7965 5.67381 9.78337 6.33134 9.10845C8.40186 6.98482 10.9172 6.45755 12.8734 6.45755ZM12.9464 20.8778C13.1875 20.8778 13.4132 20.8691 13.5861 20.8484C14.2646 20.7673 14.9248 20.5765 15.4666 20.1114C16.4419 19.274 16.2602 17.8968 15.1652 17.2416C14.4459 16.8112 13.6269 16.6995 12.8587 16.6995C12.357 16.6995 11.8771 16.7473 11.4614 16.7851C11.4455 17.7408 11.4088 19.5535 11.551 20.7959C11.8514 20.8393 12.434 20.8778 12.9462 20.8778M12.8734 6.07227C10.9948 6.07227 8.2878 6.55221 6.05924 8.83877C5.68578 9.22209 5.48721 9.72175 5.50064 10.2458C5.51432 10.7844 5.75515 11.3092 6.16134 11.6856C6.48326 11.9839 6.85966 12.1417 7.24973 12.1417C7.6398 12.1417 7.98492 11.9965 8.29805 11.7216C8.51617 11.5303 8.7167 11.3233 8.91088 11.1229L8.95338 11.0792C10.0645 9.9335 11.4093 9.32784 12.8428 9.32784C13.4005 9.32784 13.9725 9.41929 14.5428 9.59948C15.5538 9.91895 16.1048 10.3967 16.2775 11.1032C16.4587 11.8456 16.171 12.508 15.3721 13.1878C14.5421 13.8938 13.4535 14.2517 12.1362 14.2517C12.0617 14.2517 11.986 14.2505 11.9093 14.2483C11.9225 13.6624 11.9504 13.0005 12.1238 12.1986C12.2251 11.7293 12.169 11.3119 11.9613 10.9915C11.7725 10.7004 11.4711 10.5056 11.0896 10.4287C10.9247 10.3954 10.7616 10.3784 10.6048 10.3784C10.1407 10.3784 8.62413 10.5675 8.59018 13.0007C8.58676 13.2512 8.57992 13.5652 8.57235 13.9249C8.5384 15.5304 8.48295 18.1339 8.60996 20.0705C8.41823 20.0493 8.2558 20.0345 7.99543 20.015C7.95439 20.0118 7.9136 20.0103 7.87306 20.0103C7.21358 20.0103 6.65302 20.4045 6.44516 21.0143C6.09588 22.0388 6.55898 22.9491 7.65347 23.3901C7.90652 23.4919 8.15102 23.5644 8.38061 23.6053C9.52786 23.8104 10.6702 23.9144 11.7762 23.9144C12.5837 23.9144 13.3914 23.859 14.177 23.7495C15.7438 23.5314 17.012 22.9881 18.0537 22.0886C18.9772 21.2911 19.5026 20.1525 19.4953 18.9644C19.4884 17.8421 18.9951 16.7863 18.1416 16.0677C17.8781 15.8456 17.5943 15.646 17.2934 15.4705C19.3807 14.251 20.2549 12.3815 19.7579 10.1763C19.3944 8.56343 17.9975 7.19953 16.0215 6.5283C15.8843 6.48171 14.6291 6.07251 12.8739 6.07251L12.8734 6.07227ZM11.8378 17.1378C12.1582 17.1099 12.5053 17.0848 12.8592 17.0848C13.7309 17.0848 14.4217 17.2445 14.9708 17.5731C15.407 17.8342 15.6789 18.2407 15.7167 18.6886C15.7524 19.1108 15.5758 19.5119 15.2194 19.8178C14.8064 20.1723 14.2732 20.3783 13.5414 20.4658C13.3958 20.4833 13.1902 20.4925 12.9467 20.4925C12.5778 20.4925 12.189 20.4723 11.9005 20.4469C11.8102 19.3943 11.8238 18.0215 11.838 17.1381L11.8378 17.1378Z" fill="#1B4D5B"/>
<path d="M23.4004 21.2102L22.1872 20.8643C22.0336 20.8207 21.911 20.7031 21.8597 20.5508L21.4545 19.3461C21.325 18.9618 20.8155 18.8938 20.5918 19.2312L19.891 20.2885C19.8021 20.4226 19.6538 20.5039 19.4941 20.5059L18.2335 20.5229C17.8315 20.5281 17.6099 20.9964 17.8588 21.3152L18.6387 22.3145C18.7374 22.4412 18.7682 22.6086 18.7208 22.7626L18.3471 23.9776C18.2279 24.3651 18.6009 24.7226 18.978 24.5823L20.1607 24.1426C20.3106 24.0868 20.4779 24.1093 20.6084 24.2022L21.6379 24.9363C21.9662 25.1705 22.4183 24.9232 22.4026 24.5177L22.3538 23.2463C22.3477 23.0853 22.4202 22.9317 22.5485 22.8351L23.5584 22.0739C23.8806 21.8311 23.7868 21.3208 23.4002 21.2104L23.4004 21.2102Z" fill="#F9A944"/>
<path d="M20.27 24.438L19.1758 24.8453C19.2974 25.003 19.5085 25.0881 19.7244 25.008L20.6928 24.6481L20.4285 24.4597C20.3826 24.4265 20.3228 24.4188 20.27 24.4383V24.438Z" fill="#2D7083"/>
<path d="M24.1464 21.6372L24.0562 21.6113C24.0807 21.8889 23.9703 22.1581 23.7458 22.3272L22.7358 23.0881C22.6904 23.1229 22.6643 23.1774 22.6667 23.2346L22.7155 24.5055C22.7275 24.8141 22.5678 25.0974 22.2986 25.2448C22.2818 25.2539 22.2632 25.2561 22.2461 25.2643L22.3841 25.3629C22.7126 25.5968 23.1645 25.3496 23.1488 24.9441L23.1 23.6728C23.0939 23.5116 23.1667 23.3581 23.2947 23.2617L24.3046 22.5005C24.6268 22.2577 24.5333 21.7474 24.1464 21.6372Z" fill="#2D7083"/>
<path d="M22.2741 20.5602L22.4876 20.6211L22.2018 19.7714C22.1391 19.5848 21.9862 19.4746 21.8203 19.4473L22.1574 20.4488C22.1755 20.5028 22.2192 20.5445 22.2744 20.5602H22.2741Z" fill="#2D7083"/>
<path d="M23.9238 16.2432L23.3823 16.2541C23.3139 16.2555 23.249 16.2228 23.2089 16.1666L22.8933 15.7226C22.7927 15.5809 22.5748 15.6173 22.5247 15.784L22.3677 16.3071C22.3477 16.3734 22.2969 16.4254 22.2314 16.4463L21.7155 16.6122C21.5509 16.665 21.5179 16.8856 21.6596 16.9849L22.1039 17.2975C22.1601 17.3372 22.1935 17.402 22.1931 17.4713L22.1896 18.0178C22.1887 18.1921 22.3863 18.2919 22.5238 18.1867L22.9556 17.8568C23.0101 17.8149 23.0816 17.8031 23.1469 17.8248L23.6608 17.9966C23.8247 18.0513 23.9798 17.8928 23.9231 17.7282L23.7458 17.212C23.7233 17.1464 23.734 17.0742 23.7748 17.0185L24.0955 16.5782C24.1981 16.438 24.0963 16.24 23.9238 16.2432Z" fill="#F9A944"/>
<path d="M23.3776 16.1178L23.4733 16.116L23.2508 15.803C23.2022 15.7345 23.126 15.7093 23.0547 15.7187L23.3163 16.0867C23.3304 16.1072 23.3534 16.1185 23.3776 16.1178Z" fill="#2D7083"/>
<path d="M24.2814 16.3245L24.2414 16.3252C24.2858 16.4362 24.2738 16.5607 24.2025 16.6585L23.8816 17.0988C23.8672 17.1185 23.8633 17.1446 23.8713 17.1678L24.0486 17.684C24.0916 17.8092 24.0611 17.9458 23.9688 18.0399C23.9632 18.0456 23.9561 18.0495 23.9502 18.0547L24.0186 18.0776C24.1827 18.1324 24.3376 17.9739 24.2812 17.8092L24.1038 17.2928C24.0814 17.2275 24.0924 17.1552 24.1329 17.0993L24.4536 16.659C24.556 16.5185 24.4543 16.3208 24.2817 16.3243L24.2814 16.3245Z" fill="#2D7083"/>
<path d="M23.0358 17.9647L22.6367 18.2694C22.7063 18.3189 22.8035 18.3273 22.8822 18.2672L23.2356 17.9972L23.1037 17.9531C23.0805 17.9452 23.0554 17.9494 23.0358 17.9645V17.9647Z" fill="#2D7083"/>
</g>
<defs>
<clipPath id="clip0_3252_42539">
<rect width="19.0001" height="19.3801" fill="white" transform="translate(5.5 6.07227)"/>
</clipPath>
</defs>
</svg>
