<svg width="29" height="28" viewBox="0 0 29 28" fill="none" xmlns="http://www.w3.org/2000/svg">
<path d="M21.2199 19.2121C17.433 21.0792 15.2878 25.4743 14.625 26.6673V8.66732C15.2261 7.58538 17.0465 4.30858 20.2051 2.39898C21.14 1.83373 21.6075 1.55111 22.1162 1.83804C22.625 2.12497 22.625 2.74513 22.625 3.98544V17.1587C22.625 17.8415 22.625 18.1829 22.4742 18.4255C22.3234 18.668 21.9555 18.8493 21.2199 19.2121Z" stroke="#141B34" stroke-width="1.5" stroke-linecap="round" stroke-linejoin="round"/>
<path d="M14.6243 8.40741C13.7085 7.44537 11.0534 5.16053 6.59843 4.35944C4.34155 3.9536 3.2131 3.75068 2.25206 4.52844C1.29102 5.3062 1.29102 6.56917 1.29102 9.09511V18.1729C1.29102 20.4825 1.29102 21.6373 1.90781 22.3583C2.52461 23.0793 3.88255 23.3235 6.59843 23.8119C9.01945 24.2472 10.9089 24.9409 12.2766 25.6379C13.6222 26.3237 14.295 26.6667 14.6243 26.6667C14.9537 26.6667 15.6265 26.3237 16.9721 25.6379C18.3398 24.9409 20.2292 24.2472 22.6503 23.8119C25.3662 23.3235 26.7241 23.0793 27.3409 22.3583C27.9577 21.6373 27.9577 20.4825 27.9577 18.1729V9.09511C27.9577 6.56917 27.9577 5.3062 26.9966 4.52844C26.0356 3.75068 23.9577 4.35944 22.6243 5.33333" stroke="#141B34" stroke-width="1.5" stroke-linecap="round" stroke-linejoin="round"/>
</svg>
