<svg width="14" height="12" viewBox="0 0 14 12" fill="none" xmlns="http://www.w3.org/2000/svg">
<path d="M8.16602 7.64115V4.35869C8.16602 2.52399 8.16602 1.60664 7.62625 1.37834C7.08648 1.15005 6.45122 1.79871 5.1807 3.09604C4.52274 3.76788 4.14734 3.91665 3.2112 3.91665C2.39252 3.91665 1.98317 3.91665 1.68912 4.11728C1.07872 4.53374 1.17099 5.34775 1.17099 5.99992C1.17099 6.65209 1.07872 7.4661 1.68912 7.88256C1.98317 8.08319 2.39252 8.08318 3.2112 8.08318C4.14734 8.08318 4.52274 8.23196 5.1807 8.9038C6.45122 10.2011 7.08648 10.8498 7.62625 10.6215C8.16602 10.3932 8.16602 9.47585 8.16602 7.64115Z" stroke="#141B34" stroke-width="1.5" stroke-linecap="round" stroke-linejoin="round"/>
<path d="M9.91602 4.25C10.2808 4.72814 10.4993 5.33701 10.4993 6C10.4993 6.66299 10.2808 7.27186 9.91602 7.75" stroke="#141B34" stroke-width="1.5" stroke-linecap="round" stroke-linejoin="round"/>
<path d="M11.666 3.08325C12.3956 3.88016 12.8327 4.89493 12.8327 5.99992C12.8327 7.10491 12.3956 8.11968 11.666 8.91659" stroke="#141B34" stroke-width="1.5" stroke-linecap="round" stroke-linejoin="round"/>
</svg>
