<svg width="26" height="28" viewBox="0 0 26 28" fill="none" xmlns="http://www.w3.org/2000/svg">
<path d="M15.5391 14.8644L18.7001 11.7034C19.0906 11.3129 19.2858 11.1177 19.3901 10.9071C19.5887 10.5064 19.5887 10.0359 19.3901 9.63525C19.2858 9.42465 19.0906 9.22942 18.7001 8.83897C18.3096 8.44851 18.1144 8.25328 17.9038 8.14892C17.5031 7.95036 17.0327 7.95036 16.632 8.14892C16.4214 8.25328 16.2261 8.44851 15.8357 8.83897L12.6746 12M15.5391 14.8644L4.57578 25.8277C4.18532 26.2182 3.9901 26.4134 3.77949 26.5177C3.3788 26.7163 2.90835 26.7163 2.50765 26.5177C2.29705 26.4134 2.10182 26.2182 1.71137 25.8277C1.32091 25.4372 1.12568 25.242 1.02132 25.0314C0.822757 24.6307 0.822757 24.1603 1.02132 23.7596C1.12568 23.549 1.32091 23.3537 1.71137 22.9633L12.6746 12M15.5391 14.8644L12.6746 12" stroke="#141B34" stroke-width="1.5" stroke-linecap="round" stroke-linejoin="round"/>
<path d="M22.875 1.33203L22.7276 1.73033C22.5344 2.25261 22.4377 2.51375 22.2472 2.70425C22.0567 2.89475 21.7956 2.99139 21.2733 3.18465L20.875 3.33203L21.2733 3.47942C21.7956 3.67268 22.0567 3.76931 22.2472 3.95981C22.4377 4.15031 22.5344 4.41145 22.7276 4.93373L22.875 5.33203L23.0224 4.93373C23.2156 4.41145 23.3123 4.15031 23.5028 3.95981C23.6933 3.76931 23.9544 3.67268 24.4767 3.47942L24.875 3.33203L24.4767 3.18465C23.9544 2.99138 23.6933 2.89475 23.5028 2.70425C23.3123 2.51375 23.2156 2.25261 23.0224 1.73033L22.875 1.33203Z" stroke="#141B34" stroke-width="1.5" stroke-linejoin="round"/>
<path d="M22.875 14.666L22.7276 15.0643C22.5344 15.5866 22.4377 15.8477 22.2472 16.0382C22.0567 16.2287 21.7956 16.3254 21.2733 16.5186L20.875 16.666L21.2733 16.8134C21.7956 17.0067 22.0567 17.1033 22.2472 17.2938C22.4377 17.4843 22.5344 17.7454 22.7276 18.2677L22.875 18.666L23.0224 18.2677C23.2156 17.7454 23.3123 17.4843 23.5028 17.2938C23.6933 17.1033 23.9544 17.0067 24.4767 16.8134L24.875 16.666L24.4767 16.5186C23.9544 16.3254 23.6933 16.2287 23.5028 16.0382C23.3123 15.8477 23.2156 15.5866 23.0224 15.0643L22.875 14.666Z" stroke="#141B34" stroke-width="1.5" stroke-linejoin="round"/>
<path d="M10.875 1.33203L10.7276 1.73033C10.5344 2.25261 10.4377 2.51376 10.2472 2.70425C10.0567 2.89475 9.79558 2.99139 9.2733 3.18465L8.875 3.33203L9.2733 3.47942C9.79558 3.67268 10.0567 3.76931 10.2472 3.95981C10.4377 4.15031 10.5344 4.41145 10.7276 4.93373L10.875 5.33203L11.0224 4.93373C11.2156 4.41145 11.3123 4.15031 11.5028 3.95981C11.6933 3.76931 11.9544 3.67268 12.4767 3.47942L12.875 3.33203L12.4767 3.18465C11.9544 2.99138 11.6933 2.89475 11.5028 2.70425C11.3123 2.51375 11.2156 2.25261 11.0224 1.73033L10.875 1.33203Z" stroke="#141B34" stroke-width="1.5" stroke-linejoin="round"/>
</svg>
