<svg width="26" height="30" viewBox="0 0 26 30" fill="none" xmlns="http://www.w3.org/2000/svg">
<path d="M1.125 13.666C1.125 9.89478 1.125 8.00916 2.29657 6.83759C3.46815 5.66602 5.35376 5.66602 9.125 5.66602L11.7917 5.66602C15.5629 5.66602 17.4485 5.66602 18.6201 6.83759C19.7917 8.00916 19.7917 9.89478 19.7917 13.666V20.3327C19.7917 24.1039 19.7917 25.9895 18.6201 27.1611C17.4485 28.3327 15.5629 28.3327 11.7917 28.3327H9.125C5.35376 28.3327 3.46815 28.3327 2.29657 27.1611C1.125 25.9895 1.125 24.1039 1.125 20.3327L1.125 13.666Z" stroke="#141B34" stroke-width="1.5"/>
<path d="M7.85341 14.6834L8.36416 14.0737C9.33589 12.9139 9.82175 12.334 10.4609 12.334C11.1001 12.334 11.586 12.9139 12.5577 14.0737L13.0685 14.6834C13.9968 15.7914 14.4609 16.3454 14.4609 17.0007C14.4609 17.6559 13.9968 18.2099 13.0685 19.3179L12.5577 19.9276C11.586 21.0874 11.1001 21.6673 10.4609 21.6673C9.82175 21.6673 9.33589 21.0874 8.36416 19.9276L7.85341 19.3179C6.9251 18.2099 6.46094 17.6559 6.46094 17.0007C6.46094 16.3454 6.92509 15.7914 7.85341 14.6834Z" stroke="#141B34" stroke-width="1.5"/>
<path d="M19.6934 24.3327C21.1545 23.5159 21.6515 21.7201 22.6454 18.1285L24.051 13.0493C25.0449 9.45772 25.5418 7.66193 24.6983 6.24721C23.8547 4.83249 22.0001 4.35131 18.2908 3.38895L15.6679 2.70846C11.9586 1.7461 10.1039 1.26492 8.64284 2.08171C7.60258 2.66324 7.05105 3.74102 6.46094 5.60983" stroke="#141B34" stroke-width="1.5"/>
</svg>
