<svg width="14" height="15" viewBox="0 0 14 15" fill="none" xmlns="http://www.w3.org/2000/svg">
<path d="M10.5 1.42773V2.5944M3.5 1.42773V2.5944" stroke="#1B4D5B" stroke-linecap="round" stroke-linejoin="round"/>
<path d="M6.99869 7.8457H7.00392M6.99869 10.179H7.00392M9.3294 7.8457H9.33464M4.66797 7.8457H4.6732M4.66797 10.179H4.6732" stroke="#1B4D5B" stroke-linecap="round" stroke-linejoin="round"/>
<path d="M2.04297 4.92773H11.9596" stroke="#1B4D5B" stroke-width="1.5" stroke-linecap="round" stroke-linejoin="round"/>
<path d="M1.45703 7.40361C1.45703 4.86185 1.45703 3.59097 2.18743 2.80134C2.91784 2.01172 4.0934 2.01172 6.44453 2.01172H7.55286C9.90399 2.01172 11.0796 2.01172 11.81 2.80134C12.5404 3.59097 12.5404 4.86185 12.5404 7.40361V7.70316C12.5404 10.2449 12.5404 11.5158 11.81 12.3054C11.0796 13.0951 9.90399 13.0951 7.55286 13.0951H6.44453C4.0934 13.0951 2.91784 13.0951 2.18743 12.3054C1.45703 11.5158 1.45703 10.2449 1.45703 7.70316V7.40361Z" stroke="#1B4D5B" stroke-linecap="round" stroke-linejoin="round"/>
<path d="M1.75 4.92773H12.25" stroke="#1B4D5B" stroke-linecap="round" stroke-linejoin="round"/>
</svg>
