<svg width="104" height="107" viewBox="0 0 104 107" fill="none" xmlns="http://www.w3.org/2000/svg">
<rect width="104" height="106.14" fill="#DFF8FF"/>
<path d="M66 55.0805V50.3913C66 48.7556 66 47.9377 65.6955 47.2023C65.391 46.4669 64.813 45.8886 63.6569 44.732L54.1838 35.2548C53.186 34.2566 52.6871 33.7575 52.069 33.4617C51.9405 33.4002 51.8087 33.3456 51.6744 33.2982C51.0283 33.0701 50.3228 33.0701 48.9117 33.0701C42.4216 33.0701 39.1766 33.0701 36.9787 34.843C36.5346 35.2012 36.1302 35.6058 35.7721 36.05C34 38.2489 34 41.4954 34 47.9882V57.0805C34 64.6263 34 68.3991 36.3431 70.7433C38.2293 72.6303 41.0409 72.9983 46 73.0701M52 34.0705V35.0709C52 40.7303 52 43.5599 53.7574 45.318C55.5147 47.0762 58.3431 47.0762 64 47.0762H65" stroke="#2D7083" stroke-width="1.71429" stroke-linecap="round" stroke-linejoin="round"/>
<path d="M60 73.0701C65.5228 73.0701 70 67.0701 70 67.0701C70 67.0701 65.5228 61.0701 60 61.0701C54.4772 61.0701 50 67.0701 50 67.0701C50 67.0701 54.4772 73.0701 60 73.0701Z" stroke="#2D7083" stroke-width="1.71429" stroke-linejoin="round"/>
<path d="M59.9805 67.0701H59.9985" stroke="#2D7083" stroke-width="4.416" stroke-linecap="round" stroke-linejoin="round"/>
</svg>
