<svg width="74" height="74" viewBox="0 0 74 74" fill="none" xmlns="http://www.w3.org/2000/svg">
<path d="M74 37C74 38.8832 73.858 40.7332 73.5877 42.5394C73.5122 43.0484 73.4246 43.5543 73.3279 44.0572C73.2207 44.616 73.0999 45.1702 72.967 45.7184C72.7933 46.4373 72.5985 47.1471 72.3841 47.8493V47.8508C71.6531 50.2354 70.6896 52.5173 69.5147 54.6694C68.3896 56.7369 67.0712 58.6865 65.5836 60.4927C64.5839 61.71 63.5056 62.8638 62.3578 63.9451C61.3249 64.9176 60.2345 65.8328 59.0943 66.6831C58.1006 67.423 57.0691 68.1162 56.0014 68.7551C50.4484 72.0851 43.9484 74 37 74C34.4704 74 32.0012 73.7463 29.6151 73.263C25.3805 72.4052 21.4086 70.824 17.834 68.6539H17.8325C13.8939 66.2647 10.437 63.1613 7.64163 59.5217C7.09645 58.8119 6.57694 58.0824 6.0831 57.3334C4.35996 54.7192 2.96 51.874 1.9391 48.8536C1.6431 47.9777 1.37882 47.0882 1.14927 46.1835C0.921224 45.2895 0.723388 44.3819 0.563306 43.4622C0.193306 41.363 0 39.2049 0 37C0 36.2796 0.0211429 35.5653 0.0619184 34.8555C0.305061 30.5907 1.27159 26.5192 2.83918 22.7603C8.41788 9.39347 21.611 0 37 0C53.7904 0 67.9682 11.1831 72.4913 26.5086C73.4729 29.8341 74 33.3559 74 37Z" fill="#78B0D9"/>
<path d="M28.5389 30.9658C28.5389 33.9666 26.1075 36.398 23.1082 36.398H4.41491C2.76577 36.398 1.24952 35.8196 0.0625 34.8546C0.305643 30.5898 1.27217 26.5183 2.83977 22.7594C3.34568 22.6416 3.87274 22.5797 4.41491 22.5797C4.65956 22.5797 4.90119 22.5933 5.1383 22.6174C6.62132 18.9265 10.2322 16.3184 14.4547 16.3184C19.7812 16.3184 24.1352 20.4654 24.4719 25.7073C26.8112 26.3114 28.5389 28.4377 28.5389 30.9658Z" fill="#F1F1F1"/>
<path d="M74.0016 37.0003C74.0016 38.8835 73.8596 40.7335 73.5893 42.5397C73.5138 43.0487 73.4262 43.5546 73.3296 44.0575C73.2223 44.6163 73.1015 45.1705 72.9686 45.7187C71.9764 46.0464 70.9148 46.2246 69.8123 46.2246H59.7725C55.9562 46.2246 52.8633 43.1317 52.8633 39.317C52.8633 35.5007 55.9562 32.4078 59.7725 32.4078C60.0171 32.4078 60.2572 32.4199 60.4959 32.4455C61.9789 28.7531 65.5898 26.1465 69.8123 26.1465C70.7411 26.1465 71.6397 26.2718 72.4929 26.5089C73.4745 29.8344 74.0016 33.3562 74.0016 37.0003Z" fill="#F1F1F1"/>
<path d="M24.8579 66.5205C22.4642 67.638 20.0569 68.3433 17.8324 68.6529H17.8309C13.1236 65.7971 9.10493 61.9219 6.0815 57.3324C4.35836 54.7182 2.9584 51.873 1.9375 48.8526L5.90632 47.1657L27.8133 37.8613L31.0165 44.7252L34.863 52.9694C36.7432 56.9971 32.2624 63.0651 24.8579 66.5205Z" fill="#593375"/>
<path d="M27.8126 37.8613L34.8633 52.9705C35.4895 54.3123 35.41 55.8808 34.7498 57.5041C34.102 59.1014 32.8925 60.7515 31.2423 62.2884C29.5393 63.879 27.3658 65.3502 24.8579 66.5205C23.2873 67.2534 21.7107 67.8108 20.1839 68.1933L9.63281 45.5827L21.1619 40.6863L25.9524 38.6515L27.8126 37.8613Z" fill="#704F85"/>
<path d="M37.9461 39.0707L23.6354 57.9603C23.0993 58.6686 22.4046 59.2214 21.6223 59.5868C20.84 59.9523 19.9701 60.129 19.0836 60.0852L7.6408 59.5219C7.09562 58.8121 6.57611 58.0827 6.08227 57.3336C4.35913 54.7194 2.95917 51.8742 1.93827 48.8538C1.64227 47.9779 1.37799 47.0884 1.14844 46.1838L8.2328 36.8326C8.76893 36.1243 9.46211 35.5716 10.2444 35.2061C11.0267 34.8406 11.8981 34.6639 12.7846 34.7077L35.1295 35.8072L37.1562 34.8618L38.159 37.0123C38.4595 37.6421 38.4339 38.4289 37.9461 39.0707Z" fill="#593375"/>
<path d="M24.4541 39.2871L33.7954 59.3047C33.1365 60.3175 32.275 61.3248 31.2406 62.289L21.1602 40.6874L24.4541 39.2871Z" fill="#8D71B3"/>
<path d="M37.1567 34.8607L38.1603 37.0113C38.4599 37.6416 38.4347 38.428 37.9478 39.0707L31.0274 48.2041L29.9334 49.6483L23.6351 57.9601C23.1003 58.6682 22.4058 59.2211 21.6237 59.5861L10.2461 35.2052C11.0282 34.8402 11.8981 34.663 12.7843 34.708L35.1296 35.8067L37.1567 34.8607Z" fill="#8D71B3"/>
<path d="M36.9388 36.9106L31.0173 44.7259L22.6266 55.7987C21.5528 57.2152 19.8493 58.0096 18.0748 57.9235L6.0823 57.333C4.35915 54.7189 2.95919 51.8737 1.9383 48.8532C1.34932 47.1105 0.887194 45.3103 0.5625 43.4618L7.22401 34.6709C8.29777 33.2543 10.0013 32.46 11.7758 32.5476L35.4467 33.7104C37.049 33.7905 37.9083 35.6314 36.9388 36.9106Z" fill="#704F85"/>
<path d="M15.6327 46.7376C16.9453 46.1247 17.6932 44.9508 17.3032 44.1155C16.9132 43.2802 15.533 43.0998 14.2204 43.7126C12.9078 44.3255 12.1599 45.4994 12.5499 46.3347C12.9399 47.17 14.3201 47.3504 15.6327 46.7376Z" fill="#8D71B3"/>
<path d="M64.254 14.2733L59.7451 27.9674C58.543 31.6185 52.1261 32.7865 45.4146 30.5766C42.6371 29.662 40.2443 28.311 38.4789 26.7855C35.9766 24.6217 34.733 22.1039 35.4376 19.9639L40.2265 5.41992L44.9419 7.15681L64.254 14.2733Z" fill="#593375"/>
<path d="M64.2518 14.2733L59.7425 27.9684C59.342 29.1846 58.3628 30.1256 56.9851 30.7572C55.6308 31.3797 53.8913 31.7027 51.9412 31.6932C49.926 31.6862 47.6853 31.3255 45.4122 30.577C43.9885 30.1082 42.6651 29.5253 41.4766 28.8619L48.2246 8.36719L58.3881 12.1128L62.6114 13.6689L64.2518 14.2733Z" fill="#704F85"/>
<path d="M71.9165 17.9179L71.2748 19.867C71.0898 20.4423 70.6083 20.922 69.9207 21.0386L49.7142 24.4595C48.9576 24.5882 48.1924 24.5251 47.4833 24.2916C46.7743 24.0581 46.1213 23.6543 45.5891 23.1013L31.3676 8.34461C30.8839 7.84232 30.7817 7.17028 30.9745 6.59761L31.6162 4.64854L33.4535 5.25352L52.5286 2.02456C53.2852 1.89589 54.0504 1.95901 54.7595 2.19249C55.4685 2.42597 56.1215 2.8298 56.6537 3.38283L70.079 17.313L71.9165 17.9179Z" fill="#593375"/>
<path d="M61.293 13.1827L55.3188 31.3269C54.3037 31.5745 53.1642 31.6987 51.9414 31.6934L58.3883 12.1133L61.293 13.1827Z" fill="#8D71B3"/>
<path d="M71.9175 17.9169L71.2757 19.8661C71.091 20.4407 70.6092 20.9211 69.9218 21.0375L60.1514 22.6915L58.6066 22.9532L49.7148 24.458C48.9583 24.5873 48.1934 24.5242 47.4844 24.2907L54.7608 2.19141C55.4699 2.42488 56.1227 2.82856 56.6543 3.3819L70.08 17.3119L71.9175 17.9169Z" fill="#8D71B3"/>
<path d="M71.5206 16.1798L57.2993 1.42393C56.2328 0.31725 54.6884 -0.191236 53.173 0.0653477L32.967 3.48551C31.5991 3.71702 31.0495 5.3861 32.0123 6.38495L46.2336 21.1408C47.3001 22.2475 48.8444 22.756 50.3599 22.4994L70.5658 19.0791C71.9338 18.8478 72.4833 17.1787 71.5206 16.1798Z" fill="#704F85"/>
<path d="M53.9377 11.9861C54.1873 11.2287 53.4247 10.2968 52.2345 9.90468C51.0443 9.51254 49.8772 9.80866 49.6276 10.5661C49.3781 11.3235 50.1406 12.2554 51.3308 12.6475C52.521 13.0397 53.6882 12.7436 53.9377 11.9861Z" fill="#8D71B3"/>
<path d="M72.3833 47.851C70.0515 55.4654 65.3291 62.0333 59.0935 66.6848C56.8569 66.2725 55.2183 65.2274 54.7229 63.6583L50.8281 51.3335L54.9147 50.1963L71.6538 45.5449L72.3833 47.851Z" fill="#593375"/>
<path d="M72.382 47.851V47.8525C70.4761 54.073 66.9755 59.5959 62.3558 63.9468L57.7617 49.405L66.5707 46.957L70.2315 45.9391L71.6526 45.5449L72.382 47.851Z" fill="#704F85"/>
<path d="M73.3277 44.0587C73.0785 45.3485 72.7629 46.6125 72.3838 47.8509V47.8524C71.6529 50.237 70.6894 52.5189 69.5145 54.6709C68.3894 56.7384 67.0709 58.6881 65.5834 60.4943C65.4294 60.5668 65.2708 60.6272 65.1092 60.6785C64.5081 60.8688 63.8618 60.9141 63.2245 60.7978L46.2045 57.7049C45.6245 57.6007 45.2228 57.19 45.0733 56.7022L44.5508 55.0515L46.1078 54.5592L57.5808 42.9382C58.0354 42.4761 58.5912 42.1423 59.1922 41.952C59.7933 41.7632 60.4396 41.7164 61.0769 41.8327L73.3277 44.0587Z" fill="#593375"/>
<path d="M73.3269 44.0587C73.0777 45.3485 72.7621 46.6125 72.383 47.8509V47.8524C71.6521 50.237 70.6886 52.5189 69.5136 54.671C68.3885 56.7384 67.0701 58.6881 65.5826 60.4943C65.4285 60.5668 65.27 60.6272 65.1084 60.6785L59.1914 41.952C59.7925 41.7617 60.4388 41.7164 61.0761 41.8342L73.3269 44.0587Z" fill="#8D71B3"/>
<path d="M73.587 42.5403C73.3151 44.357 72.9104 46.13 72.3833 47.8502V47.8517C71.6524 50.2363 70.6889 52.5182 69.5139 54.6702L66.196 58.0319C65.2839 58.9562 63.976 59.3685 62.6984 59.1374L45.6784 56.0445C44.5261 55.8361 44.0791 54.421 44.9022 53.5889L57.0563 41.2777C57.9669 40.355 59.2763 39.9412 60.5524 40.1723L73.587 42.5403Z" fill="#704F85"/>
<path d="M62.0056 50.86C63.0145 50.5417 63.6681 49.7632 63.4655 49.1212C63.2629 48.4791 62.2809 48.2167 61.272 48.535C60.2632 48.8533 59.6095 49.6318 59.8121 50.2739C60.0147 50.9159 60.9967 51.1783 62.0056 50.86Z" fill="#8D71B3"/>
<path d="M55.9996 68.7542C50.4465 72.0842 43.9466 73.9992 36.9982 73.9992C34.4686 73.9992 31.9994 73.7455 29.6133 73.2622C30.3095 70.1829 33.0626 67.8844 36.3518 67.8844C36.5965 67.8844 36.8366 67.8964 37.0752 67.9221C38.5582 64.2297 42.1691 61.623 46.3916 61.623C50.9253 61.623 54.7552 64.6284 55.9996 68.7542Z" fill="#F1F1F1"/>
<path d="M67.8861 23.4843C67.5352 23.4843 67.221 23.2385 67.1471 22.8815C66.7299 20.858 64.4562 20.5641 60.7612 20.3205C59.4155 20.2319 58.024 20.1401 56.7551 19.8765C52.0211 18.8932 51.0529 11.684 51.0139 11.3776C50.9614 10.9639 51.2542 10.5859 51.6678 10.5334C52.0815 10.4813 52.4595 10.7736 52.512 11.1874C52.5244 11.2815 53.3908 17.6355 57.0621 18.398C58.2283 18.6403 59.5664 18.7285 60.8604 18.8138C64.3442 19.0435 67.9468 19.2809 68.6264 22.5768C68.7106 22.9853 68.4476 23.3846 68.0392 23.4689C67.9879 23.4791 67.9365 23.4843 67.8861 23.4843Z" fill="#F6E06E"/>
<path d="M14.9251 45.9906C14.775 45.9906 14.6235 45.946 14.4914 45.8532C14.1502 45.6133 14.0681 45.1423 14.3079 44.8011C15.3676 43.294 13.8988 40.7597 12.3437 38.0767C10.3524 34.6408 8.09535 30.7464 10.9431 27.8989C11.2378 27.604 11.7162 27.604 12.0109 27.8989C12.3058 28.1939 12.3058 28.672 12.0109 28.9668C10.1252 30.8524 11.4358 33.4982 13.6503 37.3194C15.375 40.2953 17.1584 43.3723 15.5434 45.6697C15.3964 45.8787 15.1625 45.9906 14.9251 45.9906Z" fill="#F6E06E"/>
<path d="M51.1965 65.4319C50.7794 65.4319 50.4414 65.0938 50.4414 64.6768C50.4414 64.2598 50.7794 63.9217 51.1965 63.9217C53.0477 63.9217 53.9448 60.9573 54.8945 57.819C56.113 53.7924 57.4942 49.2288 61.5663 48.9009C61.9833 48.8675 62.3463 49.1773 62.3796 49.593C62.4131 50.0086 62.1034 50.3729 61.6876 50.4063C58.6415 50.6515 57.4716 54.5176 56.3401 58.2565C55.2233 61.9465 54.1684 65.4319 51.1965 65.4319Z" fill="#F6E06E"/>
<path d="M12.868 20.4765C11.9837 21.8951 10.9547 26.1078 12.3734 26.9921C13.792 27.8763 17.1211 25.0972 18.0054 23.6787C18.8896 22.26 16.9943 22.739 15.5756 21.8548C14.1569 20.9706 13.7522 19.0578 12.868 20.4765Z" fill="#F6E06E"/>
<path d="M11.4794 30.6306C12.6933 30.6306 13.6775 29.6465 13.6775 28.4325C13.6775 27.2185 12.6933 26.2344 11.4794 26.2344C10.2654 26.2344 9.28125 27.2185 9.28125 28.4325C9.28125 29.6465 10.2654 30.6306 11.4794 30.6306Z" fill="#D66D22"/>
<path d="M67.4959 32.7108C68.2385 31.2131 68.8545 26.9205 67.3568 26.1779C65.8591 25.4354 62.815 28.5239 62.0724 30.0215C61.3299 31.5192 63.1699 30.8588 64.6676 31.6014C66.1651 32.3439 66.7532 34.2083 67.4959 32.7108Z" fill="#F6E06E"/>
<path d="M68.1083 26.8552C69.3222 26.8552 70.3064 25.8711 70.3064 24.6571C70.3064 23.4431 69.3222 22.459 68.1083 22.459C66.8943 22.459 65.9102 23.4431 65.9102 24.6571C65.9102 25.8711 66.8943 26.8552 68.1083 26.8552Z" fill="#D66D22"/>
<path d="M45.6387 69.5951C46.9237 69.0673 49.6628 66.7251 49.135 65.4399C48.6072 64.1549 45.0126 64.4136 43.7275 64.9414C42.4425 65.4692 43.9535 66.066 44.4813 67.3511C45.0091 68.6361 44.3537 70.1228 45.6387 69.5951Z" fill="#F6E06E"/>
<path d="M50.44 66.7316C51.4489 66.7316 52.2668 65.9137 52.2668 64.9049C52.2668 63.896 51.4489 63.0781 50.44 63.0781C49.4311 63.0781 48.6133 63.896 48.6133 64.9049C48.6133 65.9137 49.4311 66.7316 50.44 66.7316Z" fill="#D66D22"/>
</svg>
