<svg width="40" height="40" viewBox="0 0 40 40" fill="none" xmlns="http://www.w3.org/2000/svg">
<path d="M6 0.50293H34C37.0358 0.50293 39.4971 2.96419 39.4971 6V34C39.4971 37.0358 37.0358 39.4971 34 39.4971H6C2.96419 39.4971 0.50293 37.0358 0.50293 34V6C0.50293 2.96419 2.96419 0.50293 6 0.50293Z" stroke="#1B4D5B" stroke-width="1.00635"/>
<path d="M22.9994 23L17 17M17.0006 23L23 17" stroke="#141B34" stroke-width="1.5" stroke-linecap="round" stroke-linejoin="round"/>
<path d="M30 20C30 14.4772 25.5228 10 20 10C14.4772 10 10 14.4772 10 20C10 25.5228 14.4772 30 20 30C25.5228 30 30 25.5228 30 20Z" stroke="#141B34" stroke-width="1.5"/>
</svg>
