<svg width="31" height="31" viewBox="0 0 31 31" fill="none" xmlns="http://www.w3.org/2000/svg">
<path d="M6.5 1.26172H24.5C27.5376 1.26172 30 3.72415 30 6.76172V24.7617C30 27.7993 27.5376 30.2617 24.5 30.2617H6.5C3.46243 30.2617 1 27.7993 1 24.7617V6.76172C1 3.72415 3.46243 1.26172 6.5 1.26172Z" stroke="#B01212"/>
<path d="M19.875 11.9707L19.5135 17.8187C19.4211 19.3128 19.3749 20.0599 19.0004 20.597C18.8153 20.8625 18.5769 21.0866 18.3004 21.255C17.7412 21.5957 16.9927 21.5957 15.4958 21.5957C13.9968 21.5957 13.2473 21.5957 12.6878 21.2544C12.4111 21.0857 12.1727 20.8612 11.9876 20.5952C11.6132 20.0572 11.568 19.3091 11.4777 17.8129L11.125 11.9707" stroke="#B01212" stroke-width="1.5" stroke-linecap="round"/>
<path d="M10.25 11.9694H20.75M17.8658 11.9694L17.4676 11.1479C17.2031 10.6022 17.0708 10.3294 16.8427 10.1592C16.7921 10.1215 16.7385 10.0879 16.6824 10.0588C16.4298 9.92773 16.1266 9.92773 15.5201 9.92773C14.8985 9.92773 14.5877 9.92773 14.3308 10.0643C14.2739 10.0946 14.2196 10.1295 14.1684 10.1687C13.9376 10.3458 13.8087 10.6286 13.5509 11.1943L13.1975 11.9694" stroke="#B01212" stroke-width="1.5" stroke-linecap="round"/>
<path d="M14.041 18.3867L14.041 14.8867" stroke="#B01212" stroke-width="1.5" stroke-linecap="round"/>
<path d="M16.959 18.3867L16.959 14.8867" stroke="#B01212" stroke-width="1.5" stroke-linecap="round"/>
</svg>
