<svg width="12" height="14" viewBox="0 0 12 14" fill="none" xmlns="http://www.w3.org/2000/svg">
<path d="M3.37467 1.80273C2.46712 1.82996 1.92603 1.93097 1.55163 2.30573C1.03906 2.81877 1.03906 3.64449 1.03906 5.29595L1.03906 9.09114C1.03906 10.7426 1.03906 11.5683 1.55163 12.0814C2.06419 12.5944 2.88915 12.5944 4.53906 12.5944L7.45573 12.5944C9.10564 12.5944 9.9306 12.5944 10.4432 12.0814C10.9557 11.5683 10.9557 10.7426 10.9557 9.09114L10.9557 5.29595C10.9557 3.64449 10.9557 2.81877 10.4432 2.30573C10.0688 1.93097 9.52767 1.82996 8.62011 1.80273" stroke="#1B4D5B"/>
<path d="M3.37109 1.94857C3.37109 1.38478 3.82814 0.927734 4.39193 0.927734L7.60026 0.927734C8.16405 0.927734 8.62109 1.38478 8.62109 1.94857C8.62109 2.51236 8.16405 2.9694 7.60026 2.9694L4.39193 2.9694C3.82814 2.9694 3.37109 2.51236 3.37109 1.94857Z" stroke="#1B4D5B" stroke-linejoin="round"/>
<path d="M6.875 6.17773H8.91667" stroke="#1B4D5B" stroke-linecap="round"/>
<path d="M3.08203 6.76237C3.08203 6.76237 3.3737 6.76237 3.66536 7.3457C3.66536 7.3457 4.59184 5.88737 5.41536 5.5957" stroke="#1B4D5B" stroke-linecap="round" stroke-linejoin="round"/>
<path d="M6.875 9.67773H8.91667" stroke="#1B4D5B" stroke-linecap="round"/>
<path d="M3.66797 9.67773H4.2513" stroke="#1B4D5B" stroke-linecap="round" stroke-linejoin="round"/>
</svg>
