<svg width="32" height="32" viewBox="0 0 32 32" fill="none" xmlns="http://www.w3.org/2000/svg">
<path d="M0 4C0 1.79086 1.79086 0 4 0H28C30.2091 0 32 1.79086 32 4V28C32 30.2091 30.2091 32 28 32H4C1.79086 32 0 30.2091 0 28V4Z" fill="#BBF0FF"/>
<path opacity="0.4" d="M16.2365 21.0188C19.5829 20.7993 22.2485 18.1315 22.4678 14.7823C22.5107 14.1269 22.5107 13.4481 22.4678 12.7927C22.2485 9.44345 19.5829 6.77563 16.2365 6.55611C15.0948 6.48122 13.9029 6.48137 12.7635 6.55611C9.41711 6.77563 6.75153 9.44345 6.53219 12.7927C6.48927 13.4481 6.48927 14.1269 6.53219 14.7823C6.61208 16.0021 7.15875 17.1315 7.80233 18.0852C8.17601 18.7529 7.92939 19.5862 7.54017 20.3141C7.25953 20.8389 7.11921 21.1013 7.23187 21.2909C7.34454 21.4804 7.59621 21.4865 8.09954 21.4986C9.09493 21.5225 9.76615 21.244 10.2989 20.8563C10.6011 20.6364 10.7522 20.5264 10.8563 20.5138C10.9605 20.5012 11.1654 20.5845 11.5752 20.751C11.9435 20.9007 12.3712 20.9931 12.7635 21.0188C13.9029 21.0936 15.0948 21.0937 16.2365 21.0188Z" fill="#3B8FA7"/>
<path d="M12.5 11.5C12.5 10.4875 13.3954 9.5 14.5 9.5C15.6046 9.5 16.5 10.3208 16.5 11.3333C16.5 11.6983 16.3837 12.0384 16.1831 12.3241C15.5854 13.1755 14.5 13.9875 14.5 15" stroke="#3B8FA7" stroke-width="1.5" stroke-linecap="round"/>
<path d="M14.5 17.5H14.509" stroke="#3B8FA7" stroke-width="2" stroke-linecap="round" stroke-linejoin="round"/>
<path d="M12 23.5C13.0504 24.3697 14.3145 24.9238 15.7635 25.0188C16.9052 25.0937 18.0971 25.0936 19.2365 25.0188C19.6288 24.9931 20.0565 24.9007 20.4248 24.751C20.8345 24.5845 21.0395 24.5012 21.1437 24.5138C21.2478 24.5264 21.3989 24.6364 21.7011 24.8563C22.2339 25.244 22.9051 25.5225 23.9005 25.4986C24.4038 25.4865 24.6555 25.4804 24.7681 25.2909C24.8808 25.1013 24.7405 24.8389 24.4598 24.3141C24.0706 23.5862 23.824 22.7529 24.1977 22.0852C24.8413 21.1315 25.3879 20.0021 25.4678 18.7823C25.5107 18.1269 25.5107 17.4481 25.4678 16.7927C25.4146 15.9799 25.2173 15.2073 24.9012 14.5" stroke="#3B8FA7" stroke-width="1.5" stroke-linecap="round" stroke-linejoin="round"/>
<path d="M16.2365 21.0188C19.5829 20.7993 22.2485 18.1315 22.4678 14.7823C22.5107 14.1269 22.5107 13.4481 22.4678 12.7927C22.2485 9.44345 19.5829 6.77563 16.2365 6.55611C15.0948 6.48122 13.9029 6.48137 12.7635 6.55611C9.41711 6.77563 6.75153 9.44345 6.53219 12.7927C6.48927 13.4481 6.48927 14.1269 6.53219 14.7823C6.61208 16.0021 7.15875 17.1315 7.80233 18.0852C8.17601 18.7529 7.92939 19.5862 7.54017 20.3141C7.25953 20.8389 7.11921 21.1013 7.23187 21.2909C7.34454 21.4804 7.59621 21.4865 8.09954 21.4986C9.09493 21.5225 9.76615 21.244 10.2989 20.8563C10.6011 20.6364 10.7522 20.5264 10.8563 20.5138C10.9605 20.5012 11.1654 20.5845 11.5752 20.751C11.9435 20.9007 12.3712 20.9931 12.7635 21.0188C13.9029 21.0936 15.0948 21.0937 16.2365 21.0188Z" stroke="#3B8FA7" stroke-width="1.5" stroke-linejoin="round"/>
</svg>
