<svg width="22" height="21" viewBox="0 0 22 21" fill="none" xmlns="http://www.w3.org/2000/svg">
<path d="M15.6127 14.0846C12.9796 15.5677 11.4773 18.6409 11 19.5V6C11.4145 5.25396 12.602 3.11646 14.6317 1.66368C15.4868 1.05167 15.9143 0.745657 16.4572 1.02468C17 1.30371 17 1.91963 17 3.15146V11.9914C17 12.6568 17 12.9895 16.8634 13.2233C16.7267 13.4571 16.3554 13.6663 15.6127 14.0846L15.6127 14.0846Z" stroke="#1B4D5B" stroke-width="1.5" stroke-linecap="round" stroke-linejoin="round"/>
<path d="M11 5.80556C10.3131 5.08403 8.32175 3.3704 4.98056 2.76958C3.2879 2.4652 2.44157 2.31301 1.72078 2.89633C1 3.47965 1 4.42688 1 6.32133V13.1297C1 14.8619 1 15.728 1.4626 16.2687C1.9252 16.8095 2.94365 16.9926 4.98056 17.3589C6.79633 17.6854 8.21344 18.2057 9.23918 18.7285C10.2484 19.2428 10.753 19.5 11 19.5C11.247 19.5 11.7516 19.2428 12.7608 18.7285C13.7866 18.2057 15.2037 17.6854 17.0194 17.3589C19.0564 16.9926 20.0748 16.8095 20.5374 16.2687C21 15.728 21 14.8619 21 13.1297V6.32133C21 4.42688 21 3.47965 20.2792 2.89633C19.5584 2.31301 18 2.76958 17 3.5" stroke="#1B4D5B" stroke-width="1.5" stroke-linecap="round" stroke-linejoin="round"/>
</svg>
