<svg width="24" height="25" viewBox="0 0 24 25" fill="none" xmlns="http://www.w3.org/2000/svg">
<path d="M0 3.23633C0 1.57947 1.34315 0.236328 3 0.236328H21C22.6569 0.236328 24 1.57947 24 3.23633V21.2363C24 22.8932 22.6569 24.2363 21 24.2363H3C1.34315 24.2363 0 22.8932 0 21.2363V3.23633Z" fill="#E8FCF1"/>
<path d="M18 12.9863V9.23633H14.25" stroke="#419E6A" stroke-width="1.125" stroke-linecap="round" stroke-linejoin="round"/>
<path d="M18 9.23633L14.25 12.9863C13.5881 13.6483 13.2571 13.9792 12.8509 14.0158C12.7838 14.0219 12.7162 14.0219 12.6491 14.0158C12.2429 13.9792 11.9119 13.6483 11.25 12.9863C10.5881 12.3244 10.2571 11.9934 9.85093 11.9569C9.78378 11.9508 9.71622 11.9508 9.64907 11.9569C9.24288 11.9934 8.91192 12.3244 8.25 12.9863L6 15.2363" stroke="#419E6A" stroke-width="1.125" stroke-linecap="round" stroke-linejoin="round"/>
</svg>
