<svg width="40" height="40" viewBox="0 0 40 40" fill="none" xmlns="http://www.w3.org/2000/svg">
<path d="M6 0.50293H34C37.0358 0.50293 39.4971 2.96419 39.4971 6V34C39.4971 37.0358 37.0358 39.4971 34 39.4971H6C2.96419 39.4971 0.50293 37.0358 0.50293 34V6C0.50293 2.96419 2.96419 0.50293 6 0.50293Z" stroke="#1B4D5B" stroke-width="1.00635"/>
<path d="M23.1667 8.99976L23.7646 10.1175C24.1689 10.8732 24.371 11.2511 24.2374 11.4129C24.1037 11.5747 23.6635 11.444 22.7831 11.1826C21.9029 10.9213 20.9684 10.7807 20 10.7807C14.7533 10.7807 10.5 14.9082 10.5 19.9998C10.5 21.6789 10.9626 23.2533 11.7709 24.6093M16.8333 30.9998L16.2354 29.882C15.8311 29.1263 15.6289 28.7484 15.7626 28.5866C15.8963 28.4248 16.3365 28.5555 17.2169 28.8169C18.0971 29.0782 19.0316 29.2188 20 29.2188C25.2467 29.2188 29.5 25.0913 29.5 19.9998C29.5 18.3206 29.0374 16.7462 28.2291 15.3902" stroke="#141B34" stroke-width="1.5" stroke-linecap="round" stroke-linejoin="round"/>
</svg>
