<svg width="40" height="43" viewBox="0 0 40 43" fill="none" xmlns="http://www.w3.org/2000/svg">
<path d="M35.625 8.22852L34.3339 28.6964C34.004 33.9258 33.8391 36.5406 32.5016 38.4204C31.8403 39.3498 30.9889 40.1342 30.0015 40.7237C28.0044 41.916 25.3312 41.916 19.9849 41.916C14.6315 41.916 11.9548 41.916 9.95636 40.7215C8.96833 40.1309 8.11666 39.3452 7.45559 38.4142C6.11849 36.5313 5.95719 33.9129 5.6346 28.6761L4.375 8.22852" stroke="#D83232" stroke-width="2" stroke-linecap="round"/>
<path d="M38.75 8.22852H1.25" stroke="#D83232" stroke-width="2" stroke-linecap="round"/>
<path d="M28.4538 8.22982L27.0315 5.35459C26.0868 3.44467 25.6144 2.48972 24.7996 1.89413C24.6188 1.76202 24.4274 1.64451 24.2273 1.54275C23.325 1.08398 22.2421 1.08398 20.0763 1.08398C17.8561 1.08398 16.746 1.08398 15.8287 1.56198C15.6254 1.66792 15.4314 1.79019 15.2487 1.92754C14.4244 2.54725 13.964 3.53715 13.0431 5.51697L11.7812 8.22982" stroke="#D83232" stroke-width="2" stroke-linecap="round"/>
<path opacity="0.4" d="M14.791 30.6875L14.791 18.4375" stroke="#D83232" stroke-width="2" stroke-linecap="round"/>
<path opacity="0.4" d="M25.209 30.6875L25.209 18.4375" stroke="#D83232" stroke-width="2" stroke-linecap="round"/>
</svg>
