<svg width="24" height="25" viewBox="0 0 24 25" fill="none" xmlns="http://www.w3.org/2000/svg">
<path d="M0 3.23633C0 1.57947 1.34315 0.236328 3 0.236328H21C22.6569 0.236328 24 1.57947 24 3.23633V21.2363C24 22.8932 22.6569 24.2363 21 24.2363H3C1.34315 24.2363 0 22.8932 0 21.2363V3.23633Z" fill="#FFEBEB"/>
<path d="M18 11.4863V15.2363H14.25" stroke="#D83232" stroke-width="1.125" stroke-linecap="round" stroke-linejoin="round"/>
<path d="M18 15.2363L14.25 11.4863C13.5881 10.8244 13.2571 10.4934 12.8509 10.4569C12.7838 10.4508 12.7162 10.4508 12.6491 10.4569C12.2429 10.4934 11.9119 10.8244 11.25 11.4863C10.5881 12.1483 10.2571 12.4792 9.85093 12.5158C9.78378 12.5218 9.71622 12.5218 9.64907 12.5158C9.24288 12.4792 8.91192 12.1483 8.25 11.4863L6 9.23633" stroke="#D83232" stroke-width="1.125" stroke-linecap="round" stroke-linejoin="round"/>
</svg>
