<svg width="29" height="30" viewBox="0 0 29 30" fill="none" xmlns="http://www.w3.org/2000/svg">
<path d="M6.49482 19.0007C5.99028 17.8665 5.70898 16.6048 5.70898 15.2752C5.70898 10.3371 9.58918 6.33398 14.3757 6.33398C19.1622 6.33398 23.0423 10.3371 23.0423 15.2752C23.0423 16.6048 22.761 17.8665 22.2565 19.0007" stroke="#141B34" stroke-width="1.5" stroke-linecap="round"/>
<path d="M14.375 1.66602V2.99935" stroke="#141B34" stroke-width="1.5" stroke-linecap="round" stroke-linejoin="round"/>
<path d="M27.7083 15H26.375" stroke="#141B34" stroke-width="1.5" stroke-linecap="round" stroke-linejoin="round"/>
<path d="M2.37435 15H1.04102" stroke="#141B34" stroke-width="1.5" stroke-linecap="round" stroke-linejoin="round"/>
<path d="M23.8022 5.57227L22.8594 6.51508" stroke="#141B34" stroke-width="1.5" stroke-linecap="round" stroke-linejoin="round"/>
<path d="M5.89008 6.51508L4.94727 5.57227" stroke="#141B34" stroke-width="1.5" stroke-linecap="round" stroke-linejoin="round"/>
<path d="M17.7304 24.7413C19.1388 24.2857 19.6653 22.9587 19.7881 21.6632C19.8146 21.3845 19.5869 21.1543 19.307 21.1543L9.49833 21.1546C9.20873 21.1546 8.97771 21.4004 9.00706 21.6885C9.14248 23.0179 9.48403 23.9731 10.9789 24.7413M17.7304 24.7413C17.7304 24.7413 11.214 24.7413 10.9789 24.7413M17.7304 24.7413C17.5684 27.3346 16.8194 28.3616 14.3834 28.3328C11.7778 28.381 11.1784 27.1115 10.9789 24.7413" stroke="#141B34" stroke-width="1.5" stroke-linecap="round" stroke-linejoin="round"/>
</svg>
