<svg width="30" height="31" viewBox="0 0 30 31" fill="none" xmlns="http://www.w3.org/2000/svg">
<path d="M6 1.26172H24C27.0376 1.26172 29.5 3.72415 29.5 6.76172V24.7617C29.5 27.7993 27.0376 30.2617 24 30.2617H6C2.96243 30.2617 0.5 27.7993 0.5 24.7617V6.76172C0.5 3.72415 2.96243 1.26172 6 1.26172Z" stroke="#2D7083"/>
<path d="M16.8736 12.2521L17.6913 11.4344C18.1429 10.9828 18.8751 10.9828 19.3267 11.4344C19.7783 11.886 19.7783 12.6182 19.3267 13.0698L18.509 13.8875M16.8736 12.2521L12.0705 17.0552C11.4607 17.6649 11.1559 17.9698 10.9482 18.3414C10.7406 18.7129 10.5318 19.5902 10.332 20.429C11.1709 20.2293 12.0482 20.0204 12.4197 19.8128C12.7912 19.6052 13.0961 19.3003 13.7059 18.6906L18.509 13.8875M16.8736 12.2521L18.509 13.8875" stroke="#1B4D5B" stroke-linecap="round" stroke-linejoin="round"/>
<path d="M14.418 20.4277H17.918" stroke="#1B4D5B" stroke-linecap="round"/>
</svg>
