<svg width="45" height="53" viewBox="0 0 45 53" fill="none" xmlns="http://www.w3.org/2000/svg">
<path opacity="0.4" d="M11.416 9.29102H32.666C34.737 9.29102 36.416 10.942 36.416 12.9785V16.666" stroke="#3B8FA7" stroke-width="2" stroke-linecap="round" stroke-linejoin="round"/>
<path opacity="0.4" d="M30.166 28.959H15.166" stroke="#3B8FA7" stroke-width="2" stroke-linecap="round" stroke-linejoin="round"/>
<path opacity="0.4" d="M22.666 38.791H15.166" stroke="#3B8FA7" stroke-width="2" stroke-linecap="round" stroke-linejoin="round"/>
<path d="M38.9084 1.91602L8.43518 1.91607C7.19278 1.91607 5.92205 2.09534 4.91777 2.82024C1.73346 5.11872 -0.720502 10.2449 4.2351 14.8729C5.62654 16.1724 7.57145 16.6435 9.48331 16.6435H38.3747C40.3584 16.6435 43.916 16.9226 43.916 22.8789V41.2032C43.916 46.6595 39.4418 51.0827 33.9226 51.0827H11.3472C5.83816 51.0827 1.83149 47.254 1.515 41.4246L1.43125 9.70003" stroke="#3B8FA7" stroke-width="2" stroke-linecap="round"/>
</svg>
