<svg width="46" height="44" viewBox="0 0 46 44" fill="none" xmlns="http://www.w3.org/2000/svg">
<path d="M0.5 6C0.5 2.96243 2.96243 0.5 6 0.5H40C43.0376 0.5 45.5 2.96243 45.5 6V38C45.5 41.0376 43.0376 43.5 40 43.5H6C2.96244 43.5 0.5 41.0376 0.5 38V6Z" fill="#DFF8FF"/>
<path d="M0.5 6C0.5 2.96243 2.96243 0.5 6 0.5H40C43.0376 0.5 45.5 2.96243 45.5 6V38C45.5 41.0376 43.0376 43.5 40 43.5H6C2.96244 43.5 0.5 41.0376 0.5 38V6Z" stroke="white"/>
<path d="M19.8575 22.5061C17.369 20.6456 15.5956 18.5992 14.6273 17.4487C14.3276 17.0925 14.2294 16.8319 14.1703 16.3728C13.9681 14.8008 13.867 14.0148 14.328 13.5074C14.7889 13 15.604 13 17.2343 13H28.7657C30.396 13 31.2111 13 31.672 13.5074C32.133 14.0148 32.0319 14.8008 31.8297 16.3728C31.7706 16.8319 31.6724 17.0925 31.3726 17.4487C30.403 18.6006 28.6261 20.6507 26.1326 22.5135C25.907 22.6821 25.7583 22.9567 25.7307 23.2614C25.4837 25.992 25.2559 27.4876 25.1141 28.2442C24.8853 29.4657 23.1532 30.2006 22.226 30.8563C21.6741 31.2466 21.0043 30.782 20.9328 30.1778C20.7964 29.0261 20.5396 26.6864 20.2593 23.2614C20.2341 22.9539 20.0849 22.6761 19.8575 22.5061Z" stroke="#1B4D5B" stroke-width="1.5" stroke-linecap="round" stroke-linejoin="round"/>
</svg>
