<svg width="46" height="44" viewBox="0 0 46 44" fill="none" xmlns="http://www.w3.org/2000/svg">
<path d="M0.5 6C0.5 2.96243 2.96243 0.5 6 0.5H40C43.0376 0.5 45.5 2.96243 45.5 6V38C45.5 41.0376 43.0376 43.5 40 43.5H6C2.96244 43.5 0.5 41.0376 0.5 38V6Z" fill="#DFF8FF"/>
<path d="M0.5 6C0.5 2.96243 2.96243 0.5 6 0.5H40C43.0376 0.5 45.5 2.96243 45.5 6V38C45.5 41.0376 43.0376 43.5 40 43.5H6C2.96244 43.5 0.5 41.0376 0.5 38V6Z" stroke="white"/>
<path d="M13 28C13 26.4596 13 25.6893 13.3467 25.1235C13.5407 24.8069 13.8069 24.5407 14.1235 24.3467C14.6893 24 15.4596 24 17 24C18.5404 24 19.3107 24 19.8765 24.3467C20.1931 24.5407 20.4593 24.8069 20.6533 25.1235C21 25.6893 21 26.4596 21 28C21 29.5404 21 30.3107 20.6533 30.8765C20.4593 31.1931 20.1931 31.4593 19.8765 31.6533C19.3107 32 18.5404 32 17 32C15.4596 32 14.6893 32 14.1235 31.6533C13.8069 31.4593 13.5407 31.1931 13.3467 30.8765C13 30.3107 13 29.5404 13 28Z" stroke="#1B4D5B" stroke-width="1.5"/>
<path d="M25 28C25 26.4596 25 25.6893 25.3467 25.1235C25.5407 24.8069 25.8069 24.5407 26.1235 24.3467C26.6893 24 27.4596 24 29 24C30.5404 24 31.3107 24 31.8765 24.3467C32.1931 24.5407 32.4593 24.8069 32.6533 25.1235C33 25.6893 33 26.4596 33 28C33 29.5404 33 30.3107 32.6533 30.8765C32.4593 31.1931 32.1931 31.4593 31.8765 31.6533C31.3107 32 30.5404 32 29 32C27.4596 32 26.6893 32 26.1235 31.6533C25.8069 31.4593 25.5407 31.1931 25.3467 30.8765C25 30.3107 25 29.5404 25 28Z" stroke="#1B4D5B" stroke-width="1.5"/>
<path d="M13 16C13 14.4596 13 13.6893 13.3467 13.1235C13.5407 12.8069 13.8069 12.5407 14.1235 12.3467C14.6893 12 15.4596 12 17 12C18.5404 12 19.3107 12 19.8765 12.3467C20.1931 12.5407 20.4593 12.8069 20.6533 13.1235C21 13.6893 21 14.4596 21 16C21 17.5404 21 18.3107 20.6533 18.8765C20.4593 19.1931 20.1931 19.4593 19.8765 19.6533C19.3107 20 18.5404 20 17 20C15.4596 20 14.6893 20 14.1235 19.6533C13.8069 19.4593 13.5407 19.1931 13.3467 18.8765C13 18.3107 13 17.5404 13 16Z" stroke="#1B4D5B" stroke-width="1.5"/>
<path d="M25 16C25 14.4596 25 13.6893 25.3467 13.1235C25.5407 12.8069 25.8069 12.5407 26.1235 12.3467C26.6893 12 27.4596 12 29 12C30.5404 12 31.3107 12 31.8765 12.3467C32.1931 12.5407 32.4593 12.8069 32.6533 13.1235C33 13.6893 33 14.4596 33 16C33 17.5404 33 18.3107 32.6533 18.8765C32.4593 19.1931 32.1931 19.4593 31.8765 19.6533C31.3107 20 30.5404 20 29 20C27.4596 20 26.6893 20 26.1235 19.6533C25.8069 19.4593 25.5407 19.1931 25.3467 18.8765C25 18.3107 25 17.5404 25 16Z" stroke="#1B4D5B" stroke-width="1.5"/>
</svg>
