<svg width="24" height="25" viewBox="0 0 24 25" fill="none" xmlns="http://www.w3.org/2000/svg">
<path d="M3 7.27295H6" stroke="#1B4D5B" stroke-width="1.5" stroke-linecap="round" stroke-linejoin="round"/>
<path d="M3 17.2729H9" stroke="#1B4D5B" stroke-width="1.5" stroke-linecap="round" stroke-linejoin="round"/>
<path d="M18 17.2729L21 17.2729" stroke="#1B4D5B" stroke-width="1.5" stroke-linecap="round" stroke-linejoin="round"/>
<path d="M15 7.27295L21 7.27295" stroke="#1B4D5B" stroke-width="1.5" stroke-linecap="round" stroke-linejoin="round"/>
<path d="M6 7.27295C6 6.34107 6 5.87512 6.15224 5.50758C6.35523 5.01753 6.74458 4.62818 7.23463 4.42519C7.60218 4.27295 8.06812 4.27295 9 4.27295C9.93188 4.27295 10.3978 4.27295 10.7654 4.42519C11.2554 4.62818 11.6448 5.01753 11.8478 5.50758C12 5.87512 12 6.34107 12 7.27295C12 8.20483 12 8.67077 11.8478 9.03832C11.6448 9.52837 11.2554 9.91772 10.7654 10.1207C10.3978 10.2729 9.93188 10.2729 9 10.2729C8.06812 10.2729 7.60218 10.2729 7.23463 10.1207C6.74458 9.91772 6.35523 9.52837 6.15224 9.03832C6 8.67077 6 8.20483 6 7.27295Z" stroke="#1B4D5B" stroke-width="1.5"/>
<path d="M12 17.2729C12 16.3411 12 15.8751 12.1522 15.5076C12.3552 15.0175 12.7446 14.6282 13.2346 14.4252C13.6022 14.2729 14.0681 14.2729 15 14.2729C15.9319 14.2729 16.3978 14.2729 16.7654 14.4252C17.2554 14.6282 17.6448 15.0175 17.8478 15.5076C18 15.8751 18 16.3411 18 17.2729C18 18.2048 18 18.6708 17.8478 19.0383C17.6448 19.5284 17.2554 19.9177 16.7654 20.1207C16.3978 20.2729 15.9319 20.2729 15 20.2729C14.0681 20.2729 13.6022 20.2729 13.2346 20.1207C12.7446 19.9177 12.3552 19.5284 12.1522 19.0383C12 18.6708 12 18.2048 12 17.2729Z" stroke="#1B4D5B" stroke-width="1.5"/>
</svg>
